<svg width="16" height="16" viewBox="0 0 16 16" fill="none" xmlns="http://www.w3.org/2000/svg">
<path d="M13.2667 7.04001L13.0134 7.66668C12.9334 7.88001 12.9334 8.10668 13.0134 8.32001L13.2667 8.94667C13.4134 9.32001 13.2934 9.74668 12.9601 9.98668L12.4001 10.3733C12.2134 10.5067 12.0934 10.7067 12.0401 10.92L11.9201 11.5867C11.8401 11.9867 11.5067 12.28 11.1067 12.2933L10.4267 12.32C10.2001 12.3333 9.98672 12.4267 9.82672 12.5867L9.36005 13.08C9.08005 13.3733 8.64005 13.44 8.29339 13.24L7.70672 12.8933C7.50672 12.7733 7.28005 12.7467 7.05339 12.8L6.38672 12.96C6.00005 13.0533 5.58672 12.8667 5.40005 12.5067L5.09339 11.8933C4.98672 11.6933 4.81339 11.5333 4.60005 11.4667L3.96005 11.2533C3.57339 11.12 3.33339 10.7467 3.37339 10.3467L3.44005 9.66668C3.46672 9.44001 3.40005 9.21334 3.25339 9.04001L2.82672 8.50668C2.57339 8.18667 2.57339 7.74668 2.82672 7.42668L3.25339 6.89334C3.40005 6.72001 3.46672 6.49334 3.44005 6.26668L3.37339 5.58668C3.33339 5.18668 3.57339 4.81334 3.96005 4.68001L4.60005 4.46668C4.81339 4.40001 4.98672 4.24001 5.09339 4.04001L5.40005 3.42668C5.58672 3.06668 5.98672 2.88001 6.38672 2.97334L7.05339 3.13334C7.26672 3.18668 7.50672 3.16001 7.70672 3.04001L8.29339 2.69334C8.64005 2.49334 9.08005 2.54667 9.36005 2.85334L9.82672 3.34668C9.98672 3.50668 10.2001 3.61334 10.4267 3.61334L11.1067 3.64001C11.5067 3.65334 11.8534 3.94667 11.9201 4.34667L12.0401 5.01334C12.0801 5.24001 12.2134 5.44001 12.4001 5.56001L12.9601 5.94668C13.2934 6.24001 13.4267 6.66667 13.2667 7.04001V7.04001Z" fill="#12CA3B"/>
<g opacity="0.15">
<path d="M5.78672 12.4667L5.48005 11.8533C5.37339 11.6533 5.20005 11.4933 4.98672 11.4267L4.34672 11.2133C3.96005 11.08 3.72005 10.7067 3.76005 10.3067L3.82672 9.62668C3.85339 9.40001 3.78672 9.17334 3.64005 9.00001L3.21339 8.46668C2.96005 8.14668 2.96005 7.70668 3.21339 7.38668L3.64005 6.85334C3.78672 6.68001 3.85339 6.45334 3.82672 6.22668L3.76005 5.54668C3.72005 5.14668 3.96005 4.77334 4.34672 4.64001L4.98672 4.42668C5.20005 4.36001 5.37339 4.20001 5.48005 4.00001L5.78672 3.38668C5.89339 3.17334 6.08005 3.02668 6.28005 2.96001C5.92005 2.90668 5.56005 3.09334 5.40005 3.42668L5.09339 4.04001C4.98672 4.24001 4.81339 4.40001 4.60005 4.46668L3.96005 4.68001C3.57339 4.81334 3.33339 5.18668 3.37339 5.58668L3.44005 6.26668C3.46672 6.49334 3.40005 6.72001 3.25339 6.89334L2.82672 7.42668C2.57339 7.74668 2.57339 8.18668 2.82672 8.50668L3.25339 9.04001C3.40005 9.21334 3.46672 9.44001 3.44005 9.66668L3.37339 10.3467C3.33339 10.7467 3.57339 11.12 3.96005 11.2533L4.60005 11.4667C4.81339 11.5333 4.98672 11.6933 5.09339 11.8933L5.40005 12.5067C5.58672 12.8667 5.98672 13.0533 6.38672 12.96L6.46672 12.9467C6.17339 12.8933 5.92005 12.7333 5.78672 12.4667V12.4667Z" fill="black"/>
<path d="M8.07987 3L8.66654 2.65333C8.71987 2.62666 8.7732 2.6 8.82654 2.58666C8.63987 2.56 8.43987 2.6 8.27987 2.69333L7.6932 3.04C7.63987 3.06666 7.58654 3.09333 7.5332 3.10666C7.71987 3.13333 7.90654 3.10666 8.07987 3Z" fill="black"/>
<path d="M10.7999 12.2667C10.7333 12.2667 10.6666 12.28 10.6133 12.2933L11.0933 12.2667C11.1599 12.2667 11.2133 12.2533 11.2799 12.24L10.7999 12.2667Z" fill="black"/>
<path d="M8.66766 13.1867L8.08099 12.84C7.88099 12.72 7.65432 12.6933 7.42766 12.7467L7.34766 12.76C7.46766 12.7733 7.57432 12.8133 7.68099 12.8667L8.26766 13.2133C8.49432 13.3467 8.74766 13.36 8.98766 13.28C8.88099 13.28 8.77432 13.2533 8.66766 13.1867V13.1867Z" fill="black"/>
</g>
<path d="M5.86719 7.14667L7.53385 9.05334L10.9472 6.30667" fill="#12CA3B"/>
<path d="M7.13277 10.04C6.9461 10.04 6.75944 9.96002 6.6261 9.81336L4.95944 7.90669C4.71944 7.62669 4.7461 7.21336 5.01277 6.96002C5.29277 6.72002 5.7061 6.74669 5.95944 7.01335L7.21277 8.44002L10.1328 6.09336C10.4128 5.86669 10.8394 5.90669 11.0661 6.20002C11.2928 6.49336 11.2528 6.90669 10.9594 7.13336L7.5461 9.89336C7.4261 9.98669 7.27944 10.04 7.13277 10.04V10.04Z" fill="white"/>
</svg>
