<svg width="28" height="28" viewBox="0 0 28 28" fill="none" xmlns="http://www.w3.org/2000/svg">
<g clip-path="url(#clip0_522_19230)">
<path d="M9.69246 2.15381H3.23082C2.33326 2.15381 1.5705 2.46794 0.94217 3.09604C0.314135 3.72425 0 4.48701 0 5.38463V11.846C0 12.7436 0.313958 13.5062 0.94217 14.1343C1.57044 14.7624 2.33344 15.0766 3.23082 15.0766H7.00003C7.4486 15.0766 7.8301 15.2337 8.14424 15.5478C8.45837 15.8616 8.61538 16.2432 8.61538 16.6921V17.2303C8.61538 18.4195 8.19463 19.4344 7.35336 20.2759C6.51203 21.117 5.4969 21.5377 4.3076 21.5377H3.23082C2.93896 21.5377 2.68665 21.6445 2.47342 21.8575C2.26036 22.0705 2.15374 22.323 2.15374 22.6147V24.7688C2.15374 25.06 2.26036 25.3129 2.47342 25.526C2.68683 25.7389 2.9389 25.8459 3.23082 25.8459H4.30766C5.47444 25.8459 6.58782 25.6184 7.64798 25.1642C8.70809 24.71 9.62509 24.0956 10.3992 23.3215C11.1731 22.5474 11.7873 21.6305 12.2416 20.5704C12.6958 19.5103 12.923 18.397 12.923 17.2304V5.38439C12.923 4.48678 12.6089 3.72407 11.9808 3.09598C11.3527 2.46788 10.5898 2.15381 9.69246 2.15381Z" fill="white"/>
<path d="M27.0574 3.09604C26.4294 2.46794 25.6666 2.15381 24.769 2.15381H18.3076C17.4101 2.15381 16.6473 2.46794 16.0192 3.09604C15.3912 3.72431 15.0771 4.48701 15.0771 5.38463V11.846C15.0771 12.7436 15.3912 13.5062 16.0192 14.1343C16.6473 14.7624 17.4101 15.0766 18.3076 15.0766H22.0768C22.5254 15.0766 22.9072 15.2337 23.2213 15.5478C23.535 15.8618 23.6924 16.2432 23.6924 16.6921V17.2303C23.6924 18.4195 23.2717 19.4344 22.4302 20.2759C21.5889 21.117 20.574 21.5377 19.3846 21.5377H18.3076C18.016 21.5377 17.7634 21.6445 17.5504 21.8575C17.3373 22.0705 17.2305 22.323 17.2305 22.6147V24.7688C17.2305 25.06 17.3373 25.3129 17.5504 25.526C17.7634 25.7389 18.0159 25.8459 18.3076 25.8459H19.3846C20.5512 25.8459 21.6646 25.6184 22.7248 25.1642C23.7848 24.71 24.7017 24.0956 25.4758 23.3215C26.2499 22.5474 26.8645 21.6303 27.3185 20.5704C27.7726 19.5105 28 18.397 28 17.2304V5.38439C27.9998 4.48678 27.6859 3.72407 27.0574 3.09604Z" fill="white"/>
</g>
<defs>
<clipPath id="clip0_522_19230">
<rect width="28" height="28" fill="white"/>
</clipPath>
</defs>
</svg>
