<svg width="60" height="60" viewBox="0 0 60 60" fill="none" xmlns="http://www.w3.org/2000/svg">
<path fill-rule="evenodd" clip-rule="evenodd" d="M35.2734 0H55.3125C57.897 0 60 2.10297 60 4.6875V42.1875C60 44.772 57.897 46.875 55.3125 46.875H35.8594V51.5625H37.9688C41.9751 51.5625 45.2344 54.8218 45.2344 58.8281C45.2344 59.4754 44.7098 60 44.0625 60H15.9375C15.2902 60 14.7656 59.4754 14.7656 58.8281C14.7656 54.8218 18.0249 51.5625 22.0312 51.5625H24.1406V46.875H4.6875C2.10297 46.875 0 44.772 0 42.1875V4.6875C0 2.10297 2.10297 0 4.6875 0H24.7266C25.3738 0 25.8984 0.524597 25.8984 1.17188C25.8984 1.81915 25.3738 2.34375 24.7266 2.34375H4.6875C3.39523 2.34375 2.34375 3.39523 2.34375 4.6875V37.9688H4.6875V28.2701C4.68201 25.963 5.57785 23.79 7.20932 22.1544C8.55835 20.8022 10.2763 19.9539 12.1367 19.7003C11.1703 18.5683 10.5844 17.1016 10.5844 15.4999V14.1151C10.5844 10.5432 13.4908 7.63687 17.0631 7.63687C20.6355 7.63687 23.5414 10.5432 23.5414 14.1151V15.4999C23.5414 17.1194 22.9427 18.6012 21.9566 19.7383C24.446 20.0945 26.743 21.2402 28.5512 23.053L32.2897 26.8011L33.8846 25.6293C35.3947 24.5201 37.4574 24.6716 38.7886 25.9904C39.5325 26.7265 39.9403 27.7483 39.9088 28.7943C39.8772 29.8402 39.4075 30.8354 38.6211 31.5253L35.2341 34.4948C33.1732 36.3016 30.0449 36.1949 28.1122 34.2517L25.7108 31.837V37.9688H57.6562V4.6875C57.6562 3.39523 56.6048 2.34375 55.3125 2.34375H35.2734C34.6262 2.34375 34.1016 1.81915 34.1016 1.17188C34.1016 0.524597 34.6262 0 35.2734 0ZM17.0631 9.98062C14.7835 9.98062 12.9286 11.8355 12.9286 14.1151V15.4999C12.9286 17.6605 14.5949 19.4385 16.7097 19.6184H17.4165C19.5314 19.4385 21.1981 17.6605 21.1981 15.4999V14.1151C21.1981 11.8355 19.3433 9.98062 17.0631 9.98062ZM8.86871 23.8097C7.6799 25.0012 7.02759 26.5846 7.03125 28.2678V37.9688H9.79111V31.604C9.79111 30.9567 10.3157 30.4321 10.963 30.4321C11.6103 30.4321 12.1349 30.9567 12.1349 31.604V37.9688H23.367V28.997C23.367 28.5223 23.6531 28.0948 24.0916 27.9135C24.5306 27.7327 25.0351 27.8339 25.3697 28.1703L29.7739 32.5992C30.8363 33.6671 32.5562 33.7262 33.6891 32.7328L37.0757 29.7633C37.3796 29.4965 37.554 29.1275 37.5659 28.7233C37.5783 28.3195 37.4272 27.9405 37.1397 27.6558C36.633 27.1541 35.8475 27.0959 35.2725 27.5185L32.8656 29.2868C32.3991 29.6297 31.7514 29.5802 31.3422 29.1696L26.8918 24.7078C25.1257 22.9372 22.776 21.9621 20.2753 21.9621H18.235V26.2216C18.235 26.8689 17.7104 27.3935 17.0631 27.3935C16.4159 27.3935 15.8913 26.8689 15.8913 26.2216V21.9621H13.3223C11.6391 21.9621 10.0575 22.6186 8.86871 23.8097ZM22.0312 53.9062C19.7209 53.9062 17.7773 55.5061 17.2504 57.6562H42.7496C42.2227 55.5061 40.2791 53.9062 37.9688 53.9062H22.0312ZM26.4844 46.875V51.5625H33.5156V46.875H26.4844ZM55.3125 44.5312C56.6048 44.5312 57.6562 43.4798 57.6562 42.1875V40.3125H2.34375V42.1875C2.34375 43.4798 3.39523 44.5312 4.6875 44.5312H55.3125ZM30.8286 2.00043C30.6107 2.21832 30.3081 2.34375 30 2.34375C29.6919 2.34375 29.3893 2.21832 29.1714 2.00043C28.9536 1.78253 28.8281 1.47995 28.8281 1.17188C28.8281 0.8638 28.9536 0.561218 29.1714 0.343323C29.3893 0.125427 29.6919 0 30 0C30.3081 0 30.6107 0.125427 30.8286 0.343323C31.0464 0.561218 31.1719 0.8638 31.1719 1.17188C31.1719 1.47995 31.0464 1.78253 30.8286 2.00043ZM30 43.5938C30.3081 43.5938 30.6107 43.4683 30.8286 43.2504C31.0464 43.0325 31.1719 42.7299 31.1719 42.4219C31.1719 42.1138 31.0464 41.8112 30.8286 41.5933C30.6107 41.3754 30.3081 41.25 30 41.25C29.6919 41.25 29.3893 41.3754 29.1714 41.5933C28.9536 41.8112 28.8281 42.1138 28.8281 42.4219C28.8281 42.7299 28.9536 43.0325 29.1714 43.2504C29.3893 43.4683 29.6919 43.5938 30 43.5938ZM0 56.9531C0 53.7222 2.62848 51.0938 5.85938 51.0938C9.09027 51.0938 11.7188 53.7222 11.7188 56.9531V58.8281C11.7188 59.4754 11.1942 60 10.5469 60H1.17188C0.524597 60 0 59.4754 0 58.8281V56.9531ZM2.34375 56.9531V57.6562H9.375V56.9531C9.375 55.0145 7.798 53.4375 5.85938 53.4375C3.92075 53.4375 2.34375 55.0145 2.34375 56.9531ZM35.2529 14.2969H39.5591C40.2064 14.2969 40.731 13.7723 40.731 13.125C40.731 12.4777 40.2064 11.9531 39.5591 11.9531H35.2529C34.6057 11.9531 34.0811 12.4777 34.0811 13.125C34.0811 13.7723 34.6057 14.2969 35.2529 14.2969ZM44.9043 14.2969C44.257 14.2969 43.7324 13.7723 43.7324 13.125C43.7324 12.4777 44.257 11.9531 44.9043 11.9531H52.4569C53.1042 11.9531 53.6288 12.4777 53.6288 13.125C53.6288 13.7723 53.1042 14.2969 52.4569 14.2969H44.9043ZM47.2267 6.32812H35.2529C34.6057 6.32812 34.0811 6.85272 34.0811 7.5C34.0811 8.14728 34.6057 8.67188 35.2529 8.67188H47.2267C47.8739 8.67188 48.3985 8.14728 48.3985 7.5C48.3985 6.85272 47.8739 6.32812 47.2267 6.32812ZM53.6719 7.5C53.6719 7.80807 53.5464 8.11066 53.3286 8.32855C53.1107 8.54645 52.8081 8.67188 52.5 8.67188C52.1919 8.67188 51.8893 8.54645 51.6714 8.32855C51.4536 8.11066 51.3281 7.80807 51.3281 7.5C51.3281 7.19193 51.4536 6.88934 51.6714 6.67145C51.8893 6.45355 52.1919 6.32812 52.5 6.32812C52.8081 6.32812 53.1107 6.45355 53.3286 6.67145C53.5464 6.88934 53.6719 7.19193 53.6719 7.5ZM35.2529 19.9219H52.4557C53.103 19.9219 53.6276 19.3973 53.6276 18.75C53.6276 18.1027 53.103 17.5781 52.4557 17.5781H35.2529C34.6057 17.5781 34.0811 18.1027 34.0811 18.75C34.0811 19.3973 34.6057 19.9219 35.2529 19.9219ZM45 23.2031H52.4556C53.1029 23.2031 53.6275 23.7277 53.6275 24.375C53.6275 25.0223 53.1029 25.5469 52.4556 25.5469H45C44.3527 25.5469 43.8281 25.0223 43.8281 24.375C43.8281 23.7277 44.3527 23.2031 45 23.2031Z" fill="white"/>
</svg>
