<svg width="60" height="60" viewBox="0 0 60 60" fill="none" xmlns="http://www.w3.org/2000/svg">
<path fill-rule="evenodd" clip-rule="evenodd" d="M53.5194 37.2574C53.6966 36.6829 53.8545 36.1006 53.9882 35.517C54.1328 34.8862 53.7387 34.2572 53.1079 34.113C52.4771 33.9684 51.8486 34.3625 51.7039 34.9933C51.5977 35.4565 51.4742 35.918 51.3377 36.3753C50.2611 36.059 49.1231 35.8887 47.9462 35.8887C45.6715 35.8887 43.5425 36.5222 41.7256 37.6218C42.1152 35.1778 42.3129 32.6248 42.3129 30C42.3129 26.6867 42.0003 23.5469 41.4313 20.6868H50.2428C50.8681 22.0587 51.3634 23.5121 51.7104 25.0346C51.834 25.578 52.3169 25.9465 52.852 25.9465C52.9376 25.9465 53.0255 25.9369 53.1129 25.9172C53.7442 25.7735 54.1393 25.1454 53.9955 24.5142C52.7774 19.1661 49.7438 14.312 45.4527 10.8463C41.0971 7.32788 35.6094 5.39062 30 5.39062C27.5208 5.39062 25.0827 5.75775 22.739 6.48056C20.7234 2.63214 16.6905 0 12.0538 0C5.40756 0 0 5.40802 0 12.0557C0 16.6928 2.63214 20.7266 6.4801 22.7422C5.75775 25.0854 5.39062 27.523 5.39062 30C5.39062 43.5695 16.4305 54.6094 30 54.6094C32.4779 54.6094 34.9173 54.2422 37.261 53.519C39.2766 57.3679 43.3095 60 47.9462 60C54.5924 60 60 54.592 60 47.9443C60 43.3067 57.3679 39.2729 53.5194 37.2574ZM57.6562 47.9443C57.6562 49.6971 57.187 51.3414 56.3718 52.7623C55.746 51.5341 54.5769 50.6158 53.1473 50.349L52.1782 50.1682C52.4025 49.6284 52.5266 49.0375 52.5266 48.4172V46.5633C52.5266 44.0373 50.4716 41.9824 47.9462 41.9824C45.4202 41.9824 43.3653 44.0373 43.3653 46.5633V48.4172C43.3653 49.037 43.4898 49.6284 43.7141 50.1682L42.7451 50.349C41.3155 50.6158 40.1463 51.5341 39.5206 52.7623C38.7048 51.3414 38.2361 49.6971 38.2361 47.9443C38.2361 42.5894 42.5917 38.2324 47.9462 38.2324C53.3002 38.2324 57.6562 42.5894 57.6562 47.9443ZM45.7091 48.4172V46.5633C45.7091 45.3296 46.7125 44.3262 47.9462 44.3262C49.1794 44.3262 50.1828 45.3296 50.1828 46.5633V48.4172C50.1828 49.6509 49.1794 50.6543 47.9462 50.6543C46.7125 50.6543 45.7091 49.6509 45.7091 48.4172ZM23.1807 46.0698C22.4876 44.6123 21.9012 42.9872 21.4288 41.2376H37.9344C36.6692 43.1209 35.9212 45.379 35.8942 47.807L35.8804 47.8264C35.8749 47.8343 35.8694 47.8422 35.8644 47.8505C34.1373 50.6978 32.0544 52.2656 30 52.2656C27.5377 52.2656 25.052 50.0075 23.1807 46.0698ZM39.9692 30C39.9692 33.0981 39.6812 36.0846 39.1154 38.8939H20.88C20.3233 36.1226 20.0308 33.1114 20.0308 30C20.0308 26.7476 20.3471 23.6174 20.9706 20.6868H39.0335C39.6465 23.5725 39.9692 26.7307 39.9692 30ZM5.47623 19.1917V18.9395C5.47623 17.8743 6.23566 16.9597 7.28256 16.7642L9.25369 16.3966C9.33746 16.3811 9.41711 16.3564 9.49265 16.3248C10.2242 16.8201 11.1058 17.1094 12.0538 17.1094C13.0028 17.1094 13.8849 16.8192 14.6169 16.3234C14.6942 16.3564 14.7757 16.382 14.8613 16.398L16.8251 16.7642C17.872 16.9597 18.6319 17.8743 18.6319 18.9395V19.1913C16.9006 20.7893 14.5894 21.7676 12.0538 21.7676C9.51828 21.7676 7.20749 20.7893 5.47623 19.1917ZM14.2905 12.5285C14.2905 13.7622 13.287 14.7656 12.0538 14.7656C10.8206 14.7656 9.8172 13.7622 9.8172 12.5285V10.6746C9.8172 9.44092 10.8206 8.4375 12.0538 8.4375C13.287 8.4375 14.2905 9.44092 14.2905 10.6746V12.5285ZM24.1058 12.1985C25.8394 9.31961 27.9323 7.73438 30 7.73438C32.4623 7.73438 34.948 9.99252 36.8193 13.9302C37.457 15.271 38.004 16.7528 38.4554 18.343H22.3347C23.4357 16.5491 24.0797 14.447 24.1058 12.1985ZM49.0013 18.343H40.8911C39.8103 14.2424 38.1688 10.8623 36.156 8.5849C41.5343 10.1093 46.1101 13.597 49.0013 18.343ZM23.8152 8.6055C23.7625 8.66547 23.7103 8.72726 23.6581 8.78906L23.6211 8.6618C23.6623 8.64952 23.7038 8.6376 23.7451 8.62571L23.7453 8.62566L23.8152 8.6055ZM12.0538 2.34375C17.4078 2.34375 21.7639 6.70074 21.7639 12.0557C21.7639 13.8084 21.2952 15.4527 20.4794 16.8736C19.8537 15.6459 18.6845 14.7272 17.2549 14.4603L16.2859 14.2795C16.5097 13.7398 16.6342 13.1488 16.6342 12.5285V10.6746C16.6342 8.14865 14.5798 6.09375 12.0538 6.09375C9.52835 6.09375 7.47345 8.14865 7.47345 10.6746V12.5285C7.47345 13.1483 7.59796 13.7398 7.82181 14.2795L6.85272 14.4603C5.42313 14.7272 4.254 15.6459 3.62823 16.8736C2.81296 15.4527 2.34375 13.8084 2.34375 12.0557C2.34375 6.70074 6.69983 2.34375 12.0538 2.34375ZM8.66089 23.6243C9.73801 23.941 10.876 24.1113 12.0538 24.1113C14.328 24.1113 16.4571 23.4778 18.2744 22.3787C17.8848 24.8227 17.6871 27.3752 17.6871 30C17.6871 33.1522 17.97 36.1469 18.4877 38.8939H9.59015C8.39767 36.1684 7.73438 33.1604 7.73438 30C7.73438 27.8256 8.04657 25.6847 8.66089 23.6243ZM10.7854 41.2376H19.0009C20.0748 45.5141 21.7525 49.0388 23.8243 51.3936C18.2936 49.7946 13.6423 46.1037 10.7854 41.2376ZM36.2076 51.3673C36.2526 51.3157 36.2978 51.264 36.3423 51.2109C36.3542 51.2535 36.3666 51.2956 36.3794 51.3377C36.3139 51.3574 36.2485 51.3766 36.183 51.3954L36.2076 51.3673ZM41.3681 55.0804V54.8282C41.3681 53.763 42.128 52.8484 43.1749 52.6529L45.1387 52.2867C45.2243 52.2707 45.3062 52.245 45.3831 52.2121C46.1151 52.7083 46.9972 52.998 47.9462 52.998C48.8942 52.998 49.7758 52.7083 50.5074 52.2134C50.5829 52.245 50.6625 52.2697 50.7463 52.2853L52.7174 52.6529C53.7639 52.8484 54.5238 53.763 54.5238 54.8282V55.0804C52.7925 56.678 50.4817 57.6562 47.9462 57.6562C45.4106 57.6562 43.0994 56.678 41.3681 55.0804ZM26.1565 35.6943C26.5414 35.9048 26.9658 36.0097 27.3897 36.0097C27.8726 36.0097 28.3546 35.8732 28.7767 35.6032L34.1422 32.164C34.8828 31.6888 35.325 30.88 35.325 30.0001C35.325 29.1199 34.8828 28.311 34.1422 27.8363L28.7762 24.3971C27.9852 23.8899 26.9809 23.8551 26.1565 24.306C25.3316 24.7569 24.8193 25.6212 24.8193 26.561V33.4393C24.8193 34.3791 25.3316 35.2434 26.1565 35.6943ZM27.1631 26.561C27.1631 26.4722 27.2029 26.4049 27.2807 26.3623C27.3178 26.3421 27.3544 26.3321 27.3906 26.3321C27.4318 26.3321 27.4721 26.3449 27.5119 26.3705L32.8773 29.8097C32.9634 29.8646 32.9817 29.9438 32.9817 30.0001C32.9817 30.0569 32.9634 30.1356 32.8773 30.191L27.5119 33.6297C27.4368 33.6783 27.3595 33.6806 27.2807 33.638C27.2029 33.5954 27.1631 33.5286 27.1631 33.4393V26.561ZM52.2656 30.0151C52.2656 29.7057 52.3911 29.4049 52.6089 29.1866C52.8268 28.9678 53.1294 28.8433 53.4375 28.8433C53.7456 28.8433 54.0482 28.9678 54.2661 29.1866C54.4839 29.4049 54.6094 29.7071 54.6094 30.0151C54.6094 30.3237 54.4839 30.6258 54.2661 30.8437C54.0482 31.0616 53.7456 31.187 53.4375 31.187C53.1294 31.187 52.8268 31.0616 52.6089 30.8437C52.3911 30.6258 52.2656 30.3237 52.2656 30.0151Z" fill="white"/>
</svg>
