<svg width="60" height="60" viewBox="0 0 60 60" fill="none" xmlns="http://www.w3.org/2000/svg">
<path fill-rule="evenodd" clip-rule="evenodd" d="M41.4844 22.8516H54.1406C57.3715 22.8516 60 25.48 60 28.7109V48.1641C60 50.9935 57.9836 53.3611 55.3125 53.9053V58.8277C55.3125 59.3037 55.0246 59.7327 54.5837 59.9126C54.4405 59.9716 54.2899 60 54.1406 60C53.8321 60 53.5291 59.8778 53.3043 59.6489L47.7827 54.0234H24.375C21.1441 54.0234 18.5156 51.395 18.5156 48.1641V31.1719H12.2168L6.69571 36.7973C6.47095 37.0262 6.16791 37.1484 5.85892 37.1484C5.71014 37.1484 5.55954 37.1201 5.41626 37.0615C4.97543 36.8811 4.6875 36.4526 4.6875 35.9766V31.0542C2.01645 30.5095 0 28.1419 0 25.3125V5.85938C0 2.62848 2.62848 0 5.85938 0H15.4688C16.116 0 16.6406 0.524597 16.6406 1.17188C16.6406 1.81915 16.116 2.34375 15.4688 2.34375H5.85938C3.92075 2.34375 2.34375 3.92075 2.34375 5.85938V25.3125C2.34375 27.2511 3.92075 28.8281 5.85938 28.8281C6.50665 28.8281 7.03125 29.3527 7.03125 30V33.1096L10.8888 29.1792C11.109 28.9545 11.4107 28.8281 11.7252 28.8281H35.625C37.5636 28.8281 39.1406 27.2511 39.1406 25.3125V5.85938C39.1406 3.92075 37.5636 2.34375 35.625 2.34375H26.0156C25.3683 2.34375 24.8438 1.81915 24.8438 1.17188C24.8438 0.524597 25.3683 0 26.0156 0H35.625C38.8559 0 41.4844 2.62848 41.4844 5.85938V22.8516ZM54.1406 51.6797C56.0793 51.6797 57.6562 50.1027 57.6562 48.1641V28.7109C57.6562 26.7723 56.0793 25.1953 54.1406 25.1953H41.4844V25.3125C41.4844 28.5434 38.8559 31.1719 35.625 31.1719H20.8594V48.1641C20.8594 50.1027 22.4364 51.6797 24.375 51.6797H48.2748C48.5893 51.6797 48.891 51.806 49.1112 52.0308L52.9688 55.9612V52.8516C52.9688 52.2043 53.4933 51.6797 54.1406 51.6797ZM29.9326 34.8047C30.4036 34.8047 30.8289 35.0867 31.012 35.5206L34.5743 43.9581C34.8261 44.5546 34.5468 45.2422 33.9504 45.4939C33.3539 45.7457 32.6668 45.466 32.415 44.87L31.9545 43.7796H27.9102L27.4501 44.87C27.2611 45.3172 26.8271 45.5864 26.3703 45.5864C26.2183 45.5864 26.0636 45.5566 25.9148 45.4935C25.3183 45.2417 25.0391 44.5546 25.2908 43.9581L28.8527 35.5206C29.0363 35.0867 29.4615 34.8047 29.9326 34.8047ZM29.9326 38.9896L28.8999 41.4359H30.9653L29.9326 38.9896ZM15.55 14.2328C15.55 11.6835 13.4759 9.60938 10.9266 9.60938C8.37686 9.60938 6.30273 11.6835 6.30273 14.2328V15.7672C6.30273 18.3165 8.37686 20.3906 10.9266 20.3906C11.9721 20.3906 12.938 20.0414 13.7135 19.4531L14.5461 20.0665C14.7553 20.2208 14.9989 20.295 15.2401 20.295C15.5999 20.295 15.9551 20.1297 16.1849 19.818C16.5685 19.2966 16.4573 18.5628 15.9359 18.1792L15.165 17.6115C15.4122 17.0462 15.55 16.4227 15.55 15.7672V14.2328ZM12.4203 15.5905C11.8994 15.2065 11.1656 15.3181 10.782 15.8391C10.3983 16.3605 10.5096 17.0943 11.0305 17.4779L11.6439 17.9292C11.4182 18.0048 11.177 18.0469 10.9266 18.0469C9.66913 18.0469 8.64648 17.0242 8.64648 15.7668V14.2328C8.64648 12.9758 9.66959 11.9531 10.9266 11.9531C12.1836 11.9531 13.2063 12.9758 13.2063 14.2328V15.7668C13.2063 15.8958 13.193 16.0213 13.1724 16.144L12.4203 15.5905ZM20.8848 11.2109H34.0098C34.657 11.2109 35.1816 11.7355 35.1816 12.3828C35.1816 13.0301 34.657 13.5547 34.0098 13.5547H20.8848C20.2375 13.5547 19.7129 13.0301 19.7129 12.3828C19.7129 11.7355 20.2375 11.2109 20.8848 11.2109ZM34.0098 18.0469H20.8848C20.2375 18.0469 19.7129 18.5715 19.7129 19.2188C19.7129 19.866 20.2375 20.3906 20.8848 20.3906H34.0098C34.657 20.3906 35.1816 19.866 35.1816 19.2188C35.1816 18.5715 34.657 18.0469 34.0098 18.0469ZM39.7266 36.4062H52.8516C53.4988 36.4062 54.0234 36.9308 54.0234 37.5781C54.0234 38.2249 53.4984 38.75 52.8516 38.75H39.7266C39.0793 38.75 38.5547 38.2249 38.5547 37.5781C38.5547 36.9308 39.0793 36.4062 39.7266 36.4062ZM52.8516 43.2422H39.7266C39.0793 43.2422 38.5547 43.7668 38.5547 44.4141C38.5547 45.0613 39.0793 45.5859 39.7266 45.5859H52.8516C53.4984 45.5859 54.0234 45.0613 54.0234 44.4141C54.0234 43.7668 53.4988 43.2422 52.8516 43.2422ZM21.5707 2.00043C21.3528 2.21832 21.0503 2.34375 20.7422 2.34375C20.4341 2.34375 20.1315 2.21832 19.9136 2.00043C19.6957 1.78253 19.5703 1.47995 19.5703 1.17188C19.5703 0.8638 19.6957 0.561218 19.9136 0.343323C20.1315 0.125427 20.4341 0 20.7422 0C21.0503 0 21.3528 0.125427 21.5707 0.343323C21.7886 0.561218 21.9141 0.8638 21.9141 1.17188C21.9141 1.47995 21.7886 1.78253 21.5707 2.00043Z" fill="white"/>
</svg>
