<svg width="60" height="60" viewBox="0 0 60 60" fill="none" xmlns="http://www.w3.org/2000/svg">
<path fill-rule="evenodd" clip-rule="evenodd" d="M58.7858 0.000862315C59.1123 -0.0114424 59.4263 0.113245 59.6565 0.343284C59.8865 0.57344 60.0106 0.888792 59.9989 1.21399C59.9894 1.47883 59.7359 7.78774 57.0852 15.2875C54.9634 21.2964 51.9256 26.3054 48.0561 30.1749C47.1887 31.0423 46.2691 31.8861 45.3144 32.693C47.5665 36.5191 46.8603 39.5849 45.8231 41.5229C43.4348 45.9855 36.9502 48.7477 32.312 48.7477C31.8379 48.7477 31.4107 48.4622 31.2294 48.0243C31.048 47.5865 31.1483 47.0825 31.4833 46.7473C33.8367 44.3941 33.6895 41.4912 33.5649 40.5428L33.1545 40.1324C31.2324 40.9402 29.3216 41.5906 27.4637 42.0677C26.8257 42.2311 26.1162 42.1977 25.427 41.9267C24.907 43.0547 24.1436 44.1432 23.1962 45.0906C20.1796 48.1072 12.8278 48.7197 12.5163 48.7442C12.4855 48.7466 12.4546 48.7478 12.4239 48.7478C12.1146 48.7478 11.8161 48.6251 11.5954 48.4046C11.353 48.1621 11.229 47.8256 11.2559 47.4837C11.2805 47.1722 11.8931 39.8206 14.9096 36.8039C15.8574 35.8561 16.946 35.0927 18.0743 34.5727C17.8182 33.9216 17.7601 33.2098 17.9323 32.5372C18.4095 30.6784 19.0602 28.7673 19.8678 26.8455L19.4574 26.4351C18.5091 26.3104 15.6063 26.1632 13.2528 28.5167C13.0286 28.7407 12.729 28.8599 12.4239 28.8599C12.273 28.8599 12.1207 28.8307 11.9757 28.7706C11.5379 28.5893 11.2523 28.162 11.252 27.688C11.252 23.0498 14.0142 16.5651 18.4768 14.1768C20.415 13.1396 23.4808 12.4334 27.3068 14.6855C28.1141 13.7303 28.9578 12.8109 29.8249 11.9438C33.6943 8.07426 38.7032 5.03641 44.7126 2.91461C52.212 0.263948 58.5208 0.0103545 58.7858 0.000862315ZM19.5832 16.2432C16.7144 17.7786 14.6 21.6445 13.872 25.1675C17.0179 23.4955 20.1186 24.1625 20.2797 24.1989C20.6201 24.2757 20.824 24.4858 20.8831 24.5468L20.8932 24.5571C20.8956 24.5594 20.8974 24.5612 20.8987 24.5623L20.9 24.5632C22.2754 21.7232 23.9255 19.0338 25.8236 16.5374C23.5957 15.3179 21.5002 15.2173 19.5832 16.2432ZM13.7586 46.2414C16.1477 45.8944 19.9276 45.0446 21.5389 43.4332C22.4414 42.5309 23.1254 41.4847 23.5107 40.433L19.5671 36.4894C18.5155 36.8747 17.4692 37.5589 16.5669 38.4612C14.9557 40.0724 14.1057 43.8522 13.7586 46.2414ZM25.8575 39.465C26.1495 39.7566 26.5423 39.8841 26.8815 39.7973C28.3427 39.4221 29.8422 38.9314 31.3566 38.3343L21.6658 28.6435C21.0689 30.1577 20.578 31.6574 20.2026 33.1192C20.116 33.4578 20.2435 33.8505 20.5358 34.1433L23.5623 37.1699L25.8575 39.465ZM34.8329 46.128C38.3558 45.4001 42.2216 43.2856 43.757 40.417C44.7827 38.5002 44.6823 36.4046 43.4627 34.1764C40.9661 36.0745 38.2768 37.7246 35.437 39.1L35.4388 39.1024C35.4404 39.1043 35.4429 39.1069 35.4462 39.1102L35.4576 39.1214L35.4577 39.1215C35.5216 39.1838 35.7124 39.3698 35.7934 39.6919C36.2037 41.3235 35.9561 44.0143 34.8329 46.128ZM43.0194 31.5495C44.206 30.5936 45.3431 29.5735 46.3991 28.5176C49.8711 25.0457 52.6341 20.5652 54.6228 15.1967L44.8034 5.37731C39.4348 7.36621 34.9543 10.1293 31.4826 13.6011C30.4271 14.6564 29.4071 15.7936 28.4504 16.9811C26.1538 19.8333 24.2082 22.973 22.6595 26.3229L33.6774 37.3407C37.0271 35.7919 40.1668 33.8464 43.0194 31.5495ZM47.275 4.53414L55.466 12.7251C56.852 8.26293 57.3711 4.38063 57.5578 2.44246C55.62 2.62903 51.7377 3.14805 47.275 4.53414ZM46.398 13.6021C44.1082 11.3124 40.4013 11.3123 38.1113 13.6021C35.8275 15.886 35.8274 19.6032 38.1117 21.8889C40.3964 24.1722 44.1136 24.1732 46.398 21.8887C48.6876 19.5991 48.6881 15.8921 46.398 13.6021ZM44.7407 20.2313C43.3705 21.6017 41.1399 21.6017 39.769 20.2316C38.3984 18.8602 38.3983 16.6297 39.7687 15.2594C41.1425 13.8856 43.3667 13.8854 44.7407 15.2594C46.1145 16.6331 46.1148 18.8574 44.7407 20.2313ZM31.4834 28.5175C31.0252 28.0593 30.2834 28.0593 29.8252 28.5175C29.3682 28.9745 29.3682 29.7163 29.8252 30.1745C30.2834 30.6316 31.0252 30.6316 31.4834 30.1745C31.9404 29.7163 31.9404 28.9745 31.4834 28.5175ZM28.168 48.4042C27.7102 47.9465 26.9681 47.9468 26.5106 48.4044L23.1966 51.7196C22.7391 52.1774 22.7392 52.9194 23.1968 53.3769C23.6547 53.8344 24.3967 53.8344 24.8542 53.3767L28.1682 50.0614C28.6257 49.6037 28.6256 48.8617 28.168 48.4042ZM9.9389 31.8314C10.3967 31.3739 11.1387 31.3739 11.5962 31.8316C12.0537 32.2894 12.0535 33.0314 11.5958 33.4889L8.28058 36.803C7.82261 37.2607 7.08069 37.2602 6.62331 36.8027C6.16581 36.345 6.16593 35.603 6.62366 35.1455L9.9389 31.8314ZM19.8822 50.0625C19.4248 49.6049 18.6827 49.6049 18.225 50.0624L10.2867 57.9995C9.82894 58.4571 9.82894 59.1991 10.2866 59.6568C10.7439 60.1144 11.4861 60.1146 11.9438 59.6569L19.8821 51.7198C20.3398 51.2621 20.3398 50.5201 19.8822 50.0625ZM8.84996 50.0624C9.30757 49.6049 10.0497 49.6049 10.5072 50.0625C10.9648 50.5201 10.9648 51.2621 10.5071 51.7198L2.56882 59.6569C2.11109 60.1146 1.36894 60.1144 0.911558 59.6568C0.45394 59.1991 0.45394 58.4571 0.911675 57.9995L8.84996 50.0624ZM9.93757 40.1176C9.48007 39.6601 8.73793 39.6601 8.28031 40.1177L0.343198 48.056C-0.114419 48.5137 -0.114419 49.2556 0.343315 49.7133C0.800933 50.171 1.54296 50.171 2.00058 49.7132L9.93769 41.7749C10.3953 41.3172 10.3953 40.5753 9.93757 40.1176ZM34.7971 23.5454C35.255 23.0878 35.9968 23.0878 36.4545 23.5454C36.9121 24.0031 36.9121 24.7452 36.4545 25.2028L34.7975 26.8598C34.3397 27.3174 33.5978 27.3174 33.1401 26.8598C32.6825 26.4021 32.6825 25.66 33.1401 25.2024L34.7971 23.5454Z" fill="white"/>
</svg>
