<svg width="24" height="24" viewBox="0 0 24 24" fill="none" xmlns="http://www.w3.org/2000/svg">
<g opacity="0.35">
<path d="M9.70312 12C9.70312 13.2686 10.7314 14.2969 12 14.2969C13.2686 14.2969 14.2969 13.2686 14.2969 12C14.2969 10.7314 13.2686 9.70312 12 9.70312C10.7314 9.70312 9.70312 10.7314 9.70312 12Z" fill="white"/>
<path d="M6.62769 7.93597C6.7381 7.63678 6.91425 7.36597 7.14313 7.14368C7.36542 6.91479 7.63605 6.73865 7.93542 6.62823C8.17822 6.53394 8.54297 6.42169 9.21478 6.39111C9.94153 6.35797 10.1594 6.35083 11.9993 6.35083C13.8393 6.35083 14.0572 6.35779 14.7838 6.39093C15.4556 6.42169 15.8205 6.53394 16.0631 6.62823C16.3625 6.73865 16.6333 6.91479 16.8554 7.14368C17.0843 7.36597 17.2604 7.6366 17.371 7.93597C17.4653 8.17877 17.5776 8.5437 17.6082 9.21552C17.6413 9.94208 17.6484 10.16 17.6484 12C17.6484 13.8398 17.6413 14.0577 17.6082 14.7845C17.5776 15.4563 17.4653 15.821 17.371 16.0638C17.2604 16.3632 17.0845 16.6339 16.8556 16.8561C16.6333 17.085 16.3627 17.2612 16.0633 17.3716C15.8205 17.4661 15.4556 17.5783 14.7838 17.6089C14.0572 17.642 13.8395 17.649 11.9995 17.649C10.1592 17.649 9.94135 17.642 9.21497 17.6089C8.54315 17.5783 8.17822 17.4661 7.93542 17.3716C7.33447 17.1398 6.8595 16.6648 6.62769 16.0638C6.53339 15.821 6.42114 15.4563 6.39038 14.7845C6.35724 14.0577 6.35028 13.8398 6.35028 12C6.35028 10.16 6.35724 9.94208 6.39038 9.21552C6.42096 8.5437 6.5332 8.17877 6.62769 7.93597ZM11.9993 15.5381C13.9536 15.5381 15.5378 13.9541 15.5378 11.9998C15.5378 10.0455 13.9536 8.46149 11.9993 8.46149C10.0452 8.46149 8.46094 10.0455 8.46094 11.9998C8.46094 13.9541 10.0452 15.5381 11.9993 15.5381ZM8.32104 9.1485C8.77771 9.1485 9.14795 8.77826 9.14795 8.32159C9.14795 7.86493 8.77771 7.49469 8.32104 7.49469C7.86438 7.49469 7.49414 7.86493 7.49414 8.32159C7.49432 8.77826 7.86438 9.1485 8.32104 9.1485Z" fill="white"/>
<path d="M12 0C18.6264 0 24 5.3736 24 12C24 18.6264 18.6264 24 12 24C5.3736 24 0 18.6264 0 12C0 5.3736 5.3736 0 12 0ZM5.15094 14.8409C5.18427 15.5744 5.3009 16.0752 5.47119 16.5135C5.82916 17.4391 6.56085 18.1708 7.48645 18.5288C7.92462 18.6991 8.4256 18.8156 9.15894 18.8491C9.89374 18.8826 10.1285 18.8906 11.9998 18.8906C13.8713 18.8906 14.1059 18.8826 14.8409 18.8491C15.5742 18.8156 16.0752 18.6991 16.5134 18.5288C16.9733 18.3558 17.3897 18.0846 17.7339 17.7339C18.0844 17.3899 18.3556 16.9733 18.5286 16.5135C18.6989 16.0754 18.8156 15.5744 18.8489 14.8411C18.8828 14.1061 18.8906 13.8713 18.8906 12C18.8906 10.1287 18.8828 9.89392 18.8491 9.15912C18.8157 8.4256 18.6993 7.9248 18.529 7.48645C18.356 7.02667 18.0846 6.61011 17.7339 6.26605C17.3899 5.91541 16.9733 5.64423 16.5135 5.47119C16.0752 5.3009 15.5744 5.18445 14.8409 5.15094C14.1061 5.11743 13.8713 5.10938 12 5.10938C10.1287 5.10938 9.89392 5.11743 9.15912 5.15112C8.4256 5.18445 7.9248 5.3009 7.48645 5.47101C7.02667 5.64404 6.61011 5.91541 6.26587 6.26605C5.91541 6.61029 5.64404 7.02667 5.47119 7.48645C5.30072 7.9248 5.18427 8.4256 5.15076 9.15912C5.11725 9.89392 5.10938 10.1287 5.10938 12C5.10938 13.8713 5.11725 14.1061 5.15094 14.8409Z" fill="white"/>
</g>
</svg>
