<svg width="24" height="24" viewBox="0 0 24 24" fill="none" xmlns="http://www.w3.org/2000/svg">
<path opacity="0.35" fill-rule="evenodd" clip-rule="evenodd" d="M12 24C18.6274 24 24 18.6274 24 12C24 5.37258 18.6274 0 12 0C5.37258 0 0 5.37258 0 12C0 18.6274 5.37258 24 12 24ZM12.3 7.60226C13.4452 7.60226 14.4734 7.9958 15.2817 8.76874L17.5189 6.53156C16.1681 5.27289 14.4024 4.5 12.3 4.5C9.25095 4.5 6.61313 6.24792 5.32965 8.79707C4.80139 9.85007 4.5 11.0414 4.5 12.3C4.5 13.5586 4.80139 14.7499 5.32965 15.8029C6.61313 18.3521 9.25095 20.1 12.3 20.1C14.406 20.1 16.1717 19.4015 17.4622 18.2103C18.9371 16.8524 19.788 14.8527 19.788 12.4773C19.788 11.9242 19.7384 11.3924 19.6462 10.8818H12.3V13.899H16.4978C16.317 14.874 15.7675 15.7001 14.9414 16.2532C14.243 16.7211 13.3495 16.9977 12.3 16.9977C10.2685 16.9977 8.54892 15.6256 7.93552 13.782C7.77951 13.314 7.69089 12.8141 7.69089 12.3C7.69089 11.7859 7.77951 11.286 7.93552 10.818C8.54892 8.97437 10.2685 7.60226 12.3 7.60226Z" fill="white"/>
</svg>
