<svg width="267" height="267" viewBox="0 0 267 267" fill="none" xmlns="http://www.w3.org/2000/svg">
<g filter="url(#filter0_d_258_52197)">
<path d="M25.0799 100.725L70.8438 226.869C74.4359 236.77 85.7186 241.483 95.2923 237.102C152.196 211.038 201.552 171.341 239.167 122.187C245.56 113.836 243.455 101.8 234.594 96.1069L121.671 23.5929C114.028 18.6743 103.964 20.2875 98.0932 27.2305C80.3225 48.2809 58.5166 65.7887 33.8307 78.5517C25.7603 82.7428 21.9783 92.1847 25.0799 100.725Z" fill="white"/>
</g>
<g clip-path="url(#clip0_258_52197)">
<path d="M108.871 152.149L107.107 149.664C106.733 149.137 106.001 149.012 105.473 149.387C104.945 149.762 104.821 150.493 105.196 151.021L106.96 153.506C107.189 153.828 107.55 154 107.917 154C108.151 154 108.388 153.929 108.594 153.783C109.122 153.409 109.246 152.677 108.871 152.149Z" fill="url(#paint0_linear_258_52197)"/>
<path d="M122.391 152.587L120.471 143.436C119.537 138.986 116.945 135.139 113.172 132.602L109.073 129.845C107.429 128.74 105.22 128.978 103.846 130.379V116.258C103.846 114.405 102.582 112.83 100.773 112.428C99.6051 112.169 98.4007 112.45 97.4678 113.199C96.535 113.947 96 115.062 96 116.258V134.428C96 136.809 96.7284 139.093 98.1064 141.034L100.196 143.978C100.425 144.3 100.786 144.472 101.153 144.472C101.387 144.472 101.624 144.401 101.83 144.255C102.358 143.881 102.482 143.149 102.107 142.621L100.018 139.678C98.9225 138.135 98.3437 136.32 98.3437 134.428V116.258C98.3437 115.777 98.5591 115.328 98.9346 115.027C99.3099 114.725 99.7948 114.612 100.265 114.717C100.993 114.878 101.502 115.512 101.502 116.258V130.674C101.502 132.715 102.252 134.659 103.614 136.172C103.672 136.242 103.732 136.311 103.796 136.378C104.574 137.203 105.489 138.174 106.351 139.09L107.557 140.374C107.561 140.379 107.565 140.382 107.569 140.386C108.601 141.484 109.362 142.294 109.378 142.311C109.821 142.783 110.563 142.806 111.035 142.363C111.507 141.92 111.53 141.179 111.087 140.707C111.065 140.684 109.694 139.223 108.127 137.558L105.44 134.698C105.433 134.691 105.427 134.684 105.42 134.676C104.79 133.923 104.798 132.83 105.459 132.085C106.043 131.425 107.035 131.299 107.765 131.79L111.865 134.547C115.128 136.741 117.37 140.069 118.177 143.918L120.097 153.069C120.213 153.621 120.7 154 121.243 154C121.323 154 121.404 153.992 121.485 153.975C122.118 153.842 122.524 153.221 122.391 152.587Z" fill="url(#paint1_linear_258_52197)"/>
<path d="M104.682 146.249L104.675 146.238C104.299 145.711 103.567 145.589 103.04 145.965C102.513 146.341 102.391 147.073 102.767 147.599L102.774 147.61C103.003 147.931 103.363 148.101 103.729 148.101C103.965 148.101 104.203 148.031 104.409 147.883C104.936 147.507 105.058 146.776 104.682 146.249Z" fill="url(#paint2_linear_258_52197)"/>
<path d="M154.532 113.199C153.599 112.45 152.394 112.17 151.227 112.429C149.417 112.83 148.153 114.405 148.153 116.258V130.379C146.78 128.978 144.57 128.74 142.926 129.845L138.827 132.602C135.054 135.139 132.462 138.986 131.528 143.436L129.608 152.587C129.475 153.221 129.881 153.842 130.514 153.975C130.596 153.992 130.677 154 130.756 154C131.299 154 131.786 153.621 131.902 153.068L133.822 143.917C134.629 140.069 136.871 136.741 140.135 134.547L144.234 131.79C144.965 131.299 145.957 131.425 146.541 132.085C147.2 132.829 147.209 133.92 146.582 134.674C146.574 134.682 146.567 134.69 146.559 134.698C146.559 134.698 140.934 140.684 140.913 140.707C140.47 141.179 140.493 141.92 140.965 142.363C141.436 142.806 142.178 142.783 142.621 142.311C142.637 142.294 147.425 137.203 148.204 136.378C148.267 136.311 148.327 136.242 148.385 136.172C149.747 134.659 150.497 132.715 150.497 130.674V116.258C150.497 115.512 151.006 114.878 151.734 114.717C152.205 114.612 152.689 114.725 153.065 115.027C153.44 115.328 153.656 115.777 153.656 116.258V134.428C153.656 136.32 153.077 138.135 151.982 139.678L143.128 152.15C142.754 152.677 142.878 153.409 143.406 153.783C143.612 153.93 143.848 154 144.083 154C144.45 154 144.811 153.828 145.04 153.506L153.893 141.034C155.271 139.093 156 136.809 156 134.428V116.258C155.999 115.062 155.464 113.947 154.532 113.199Z" fill="url(#paint3_linear_258_52197)"/>
<path d="M140.843 116.46L138.758 115.962V115.588C140.113 114.639 141.001 113.067 141.001 111.291V108.58C141.001 105.688 138.649 103.336 135.757 103.336C134.459 103.336 133.271 103.81 132.354 104.594C131.333 102.095 128.877 100.328 126.015 100.328C123.149 100.328 120.691 102.099 119.672 104.604C118.754 103.814 117.561 103.335 116.258 103.335C113.366 103.335 111.014 105.688 111.014 108.58V108.76V111.291C111.014 113.067 111.902 114.639 113.257 115.588V115.962L111.172 116.46C108.683 117.055 106.944 119.257 106.944 121.817V124.005C106.944 124.652 107.469 125.177 108.116 125.177H113.501C113.493 125.319 113.487 125.462 113.487 125.606V129.82C113.487 130.467 114.012 130.992 114.659 130.992H121.703C122.35 130.992 122.875 130.467 122.875 129.82C122.875 129.173 122.35 128.648 121.703 128.648H120.492V126.226C120.492 125.579 119.968 125.055 119.32 125.055C118.673 125.055 118.149 125.579 118.149 126.226V128.648H115.831V125.606C115.831 123.346 117.366 121.4 119.564 120.873L122.78 120.103L124.932 124.999C125.119 125.424 125.54 125.699 126.004 125.699H126.005C126.469 125.699 126.89 125.424 127.077 124.999L129.227 120.11L132.433 120.876C134.633 121.401 136.169 123.348 136.169 125.61V128.648H133.852V126.226C133.852 125.579 133.327 125.055 132.68 125.055C132.033 125.055 131.508 125.579 131.508 126.226V128.648H130.18C129.533 128.648 129.008 129.173 129.008 129.82C129.008 130.467 129.533 130.992 130.18 130.992H137.341C137.988 130.992 138.513 130.467 138.513 129.82V125.61C138.513 125.465 138.507 125.321 138.499 125.177H143.899C144.546 125.177 145.071 124.653 145.071 124.005V121.817C145.071 119.258 143.332 117.055 140.843 116.46ZM135.757 105.679C137.292 105.679 138.552 106.878 138.651 108.389H137.022C135.652 108.389 134.305 108.059 133.093 107.431C133.539 106.401 134.565 105.679 135.757 105.679ZM132.856 111.119C132.857 111.062 132.86 111.006 132.86 110.948V109.904C134.175 110.449 135.589 110.733 137.022 110.733H138.658V111.291C138.658 112.89 137.356 114.192 135.757 114.192C134.157 114.192 132.856 112.89 132.856 111.291V111.119ZM121.514 107.173C121.514 104.691 123.533 102.672 126.015 102.672C128.254 102.672 130.115 104.315 130.459 106.458L128.486 105.299C127.993 105.009 127.362 105.117 126.995 105.556C126.031 106.707 124.617 107.367 123.116 107.367H121.514V107.173ZM116.258 105.679C117.45 105.679 118.476 106.401 118.922 107.431C117.71 108.059 116.363 108.389 114.993 108.389H113.364C113.463 106.878 114.723 105.679 116.258 105.679ZM113.357 110.732H114.993C116.428 110.732 117.843 110.448 119.16 109.903V111.29C119.16 112.89 117.858 114.192 116.258 114.192C114.659 114.192 113.357 112.89 113.357 111.291V110.732ZM119.018 118.594C116.712 119.146 114.9 120.754 114.038 122.833H109.288V121.817C109.288 120.347 110.287 119.081 111.717 118.739L114.701 118.026C115.229 117.9 115.601 117.429 115.601 116.887V116.493C115.817 116.52 116.036 116.535 116.258 116.535C116.48 116.535 116.697 116.52 116.911 116.493V116.828C116.91 116.845 116.91 116.863 116.91 116.88C116.91 117.265 117.099 117.641 117.446 117.866C117.577 117.95 117.718 118.005 117.862 118.033L119.61 118.452L119.018 118.594ZM122.287 116.775C121.986 116.642 121.672 116.536 121.348 116.458L119.255 115.957V115.591C119.633 115.327 119.974 115.015 120.27 114.664C120.794 115.47 121.482 116.159 122.287 116.684V116.775ZM127.376 118.497L126.005 121.615L124.63 118.489V117.652C125.078 117.745 125.541 117.793 126.015 117.793C126.481 117.793 126.936 117.746 127.376 117.657V118.497ZM126.015 115.449C123.533 115.449 121.514 113.43 121.514 110.948V109.71H123.116C124.974 109.71 126.741 109.019 128.095 107.787L130.512 109.207V111.12C130.421 113.522 128.439 115.449 126.015 115.449ZM129.72 116.778V116.699C130.532 116.174 131.225 115.483 131.753 114.673C132.047 115.021 132.386 115.33 132.76 115.591V115.957L130.666 116.458C130.34 116.537 130.024 116.644 129.72 116.778ZM142.727 122.833H137.961C137.098 120.754 135.284 119.147 132.978 118.596L132.389 118.456L134.147 118.034C134.293 118.007 134.437 117.951 134.569 117.866C134.916 117.642 135.104 117.265 135.104 116.88C135.104 116.871 135.104 116.862 135.104 116.853V116.493C135.318 116.52 135.535 116.535 135.756 116.535C135.979 116.535 136.198 116.52 136.414 116.493V116.887C136.414 117.429 136.786 117.9 137.314 118.026L140.298 118.739C141.728 119.081 142.727 120.347 142.727 121.817V122.833Z" fill="url(#paint4_linear_258_52197)"/>
<path d="M126.828 128.991C126.609 128.773 126.308 128.649 126 128.649C125.691 128.649 125.389 128.773 125.171 128.991C124.952 129.21 124.828 129.511 124.828 129.821C124.828 130.129 124.952 130.43 125.171 130.649C125.389 130.867 125.691 130.992 126 130.992C126.308 130.992 126.609 130.867 126.828 130.649C127.046 130.43 127.172 130.129 127.172 129.821C127.172 129.511 127.046 129.21 126.828 128.991Z" fill="url(#paint5_linear_258_52197)"/>
<path d="M125.999 94C125.352 94 124.827 94.5246 124.827 95.1719V96.9254C124.827 97.5726 125.352 98.0972 125.999 98.0972C126.646 98.0972 127.171 97.5726 127.171 96.9254V95.1719C127.171 94.5246 126.646 94 125.999 94Z" fill="url(#paint6_linear_258_52197)"/>
<path d="M121.683 97.8225L120.453 96.5944C119.995 96.1369 119.253 96.1372 118.796 96.5951C118.338 97.0529 118.339 97.795 118.797 98.2523L120.026 99.4805C120.255 99.7091 120.555 99.8234 120.854 99.8234C121.154 99.8234 121.454 99.7087 121.683 99.4798C122.141 99.0219 122.14 98.2799 121.683 97.8225Z" fill="url(#paint7_linear_258_52197)"/>
<path d="M133.174 96.6244C132.716 96.167 131.974 96.1673 131.517 96.6252L130.297 97.8462C129.84 98.3041 129.84 99.0461 130.298 99.5035C130.527 99.7321 130.826 99.8464 131.126 99.8464C131.426 99.8464 131.726 99.7317 131.955 99.5026L133.175 98.2817C133.632 97.8238 133.632 97.0818 133.174 96.6244Z" fill="url(#paint8_linear_258_52197)"/>
</g>
<defs>
<filter id="filter0_d_258_52197" x="0" y="0.747314" width="266.872" height="265.997" filterUnits="userSpaceOnUse" color-interpolation-filters="sRGB">
<feFlood flood-opacity="0" result="BackgroundImageFix"/>
<feColorMatrix in="SourceAlpha" type="matrix" values="0 0 0 0 0 0 0 0 0 0 0 0 0 0 0 0 0 0 127 0" result="hardAlpha"/>
<feOffset dy="4"/>
<feGaussianBlur stdDeviation="12"/>
<feComposite in2="hardAlpha" operator="out"/>
<feColorMatrix type="matrix" values="0 0 0 0 0 0 0 0 0 0 0 0 0 0 0 0 0 0 0.1 0"/>
<feBlend mode="normal" in2="BackgroundImageFix" result="effect1_dropShadow_258_52197"/>
<feBlend mode="normal" in="SourceGraphic" in2="effect1_dropShadow_258_52197" result="shape"/>
</filter>
<linearGradient id="paint0_linear_258_52197" x1="104.979" y1="149.171" x2="109.214" y2="149.284" gradientUnits="userSpaceOnUse">
<stop stop-color="#F44336"/>
<stop offset="1" stop-color="#C62828"/>
</linearGradient>
<linearGradient id="paint1_linear_258_52197" x1="96" y1="112.334" x2="123.236" y2="112.877" gradientUnits="userSpaceOnUse">
<stop stop-color="#F44336"/>
<stop offset="1" stop-color="#C62828"/>
</linearGradient>
<linearGradient id="paint2_linear_258_52197" x1="102.549" y1="145.747" x2="104.972" y2="145.823" gradientUnits="userSpaceOnUse">
<stop stop-color="#F44336"/>
<stop offset="1" stop-color="#C62828"/>
</linearGradient>
<linearGradient id="paint3_linear_258_52197" x1="129.583" y1="112.334" x2="156.819" y2="112.877" gradientUnits="userSpaceOnUse">
<stop stop-color="#F44336"/>
<stop offset="1" stop-color="#C62828"/>
</linearGradient>
<linearGradient id="paint4_linear_258_52197" x1="106.944" y1="100.328" x2="146.209" y2="101.863" gradientUnits="userSpaceOnUse">
<stop stop-color="#F44336"/>
<stop offset="1" stop-color="#C62828"/>
</linearGradient>
<linearGradient id="paint5_linear_258_52197" x1="124.828" y1="128.649" x2="127.243" y2="128.725" gradientUnits="userSpaceOnUse">
<stop stop-color="#F44336"/>
<stop offset="1" stop-color="#C62828"/>
</linearGradient>
<linearGradient id="paint6_linear_258_52197" x1="124.827" y1="94" x2="127.244" y2="94.0435" gradientUnits="userSpaceOnUse">
<stop stop-color="#F44336"/>
<stop offset="1" stop-color="#C62828"/>
</linearGradient>
<linearGradient id="paint7_linear_258_52197" x1="118.453" y1="96.2515" x2="122.135" y2="96.3672" gradientUnits="userSpaceOnUse">
<stop stop-color="#F44336"/>
<stop offset="1" stop-color="#C62828"/>
</linearGradient>
<linearGradient id="paint8_linear_258_52197" x1="129.954" y1="96.2816" x2="133.626" y2="96.3969" gradientUnits="userSpaceOnUse">
<stop stop-color="#F44336"/>
<stop offset="1" stop-color="#C62828"/>
</linearGradient>
<clipPath id="clip0_258_52197">
<rect width="60" height="60" fill="white" transform="translate(96 94)"/>
</clipPath>
</defs>
</svg>
