<svg width="275" height="223" viewBox="0 0 275 223" fill="none" xmlns="http://www.w3.org/2000/svg">
<g filter="url(#filter0_d_258_52196)">
<path d="M137.44 25.4569C121.679 25.4569 106.33 23.7172 91.5657 20.4276C82.7833 18.4665 73.9217 23.4167 70.8517 31.878L25.0879 158.038C21.5116 167.875 27.0659 178.741 37.1618 181.508C69.1111 190.223 102.722 194.888 137.425 194.888C172.127 194.888 205.754 190.223 237.687 181.508C247.799 178.756 253.338 167.891 249.777 158.038L204.013 31.878C200.943 23.4167 192.082 18.4665 183.299 20.4276C168.535 23.7172 153.201 25.4569 137.44 25.4569Z" fill="white"/>
</g>
<g clip-path="url(#clip0_258_52196)">
<path d="M136.881 81.6408C137.62 81.6408 138.219 81.0419 138.219 80.3032V74.3376C138.219 73.5989 137.62 73 136.881 73C136.143 73 135.544 73.5989 135.544 74.3376V80.3032C135.544 81.0419 136.143 81.6408 136.881 81.6408Z" fill="url(#paint0_linear_258_52196)"/>
<path d="M169.577 118.951L167.214 116.595C166.373 115.755 165.253 115.293 164.059 115.293C163.296 115.293 162.563 115.483 161.914 115.839L157.461 111.391L157.678 111.175C159.485 109.365 159.484 106.424 157.678 104.62C157.033 103.973 156.227 103.542 155.35 103.361C155.471 102.944 155.534 102.507 155.534 102.059C155.534 100.817 155.051 99.6519 154.178 98.7818C153.532 98.1353 152.727 97.7042 151.85 97.5228C151.97 97.1056 152.034 96.6688 152.034 96.2215C152.034 94.9789 151.551 93.814 150.676 92.9426C150.015 92.2825 149.203 91.8647 148.35 91.6869C148.806 90.1134 148.416 88.3432 147.178 87.1032C146.148 86.0773 144.75 85.6363 143.403 85.7792L134.579 84.1091C133.234 83.8539 131.553 83.685 130.492 84.6526C130.425 84.7137 130.357 84.7839 130.29 84.8622C128.645 84.2626 126.727 84.6196 125.41 85.9353C124.536 86.808 124.055 87.9725 124.055 89.2143C124.055 89.6616 124.118 90.0984 124.239 90.5157C123.362 90.697 122.558 91.1276 121.915 91.772C121.039 92.6439 120.556 93.8071 120.555 95.0474C120.555 95.4958 120.619 95.9341 120.74 96.3524C119.863 96.5333 119.058 96.9631 118.413 97.6075C117.537 98.4821 117.055 99.6472 117.055 100.888C117.055 101.839 117.339 102.745 117.865 103.51C117.201 103.735 116.593 104.109 116.083 104.618C114.276 106.424 114.275 109.365 116.084 111.177L116.301 111.393L111.847 115.838C110.192 115.059 108.153 115.35 106.788 116.714L104.423 119.072C103.582 119.912 103.119 121.032 103.119 122.227C103.119 123.421 103.582 124.542 104.423 125.382L107.374 128.329C107.897 128.851 108.743 128.851 109.265 128.328C109.788 127.805 109.787 126.958 109.264 126.436L106.314 123.489C105.979 123.155 105.794 122.706 105.794 122.227C105.794 121.748 105.979 121.299 106.313 120.966L108.677 118.608C109.268 118.018 110.172 117.93 110.859 118.34C110.907 118.413 110.963 118.482 111.027 118.546C111.142 118.661 111.273 118.749 111.412 118.814L124.971 132.353C125.035 132.493 125.124 132.625 125.239 132.741C125.351 132.853 125.48 132.94 125.616 133.004C125.902 133.329 126.061 133.743 126.061 134.184C126.061 134.664 125.876 135.112 125.541 135.447L123.179 137.806C122.481 138.501 121.346 138.501 120.65 137.808L117.7 134.857C117.177 134.335 116.33 134.335 115.808 134.857C115.286 135.38 115.286 136.226 115.808 136.749L118.761 139.702C119.63 140.567 120.771 141 121.913 141C123.055 141 124.198 140.567 125.068 139.7L127.432 137.34C128.273 136.5 128.736 135.379 128.736 134.184C128.736 133.332 128.499 132.518 128.058 131.816L133.07 126.81C133.075 126.805 133.081 126.799 133.086 126.794C133.66 126.2 135.258 126.311 136.804 126.419C137.902 126.495 139.126 126.58 140.322 126.442L145.81 131.924C145.455 132.572 145.265 133.304 145.265 134.066C145.265 135.259 145.728 136.379 146.569 137.219L148.933 139.58C149.773 140.419 150.894 140.882 152.087 140.882C153.281 140.882 154.401 140.42 155.242 139.58L169.578 125.261C170.419 124.422 170.882 123.301 170.882 122.107C170.882 120.912 170.418 119.792 169.577 118.951ZM134.081 86.7375L139.883 87.8357L136.41 91.3073C135.873 91.0491 135.137 90.5675 134.329 89.7948C133.223 88.7371 132.433 87.5159 132.361 86.7542C132.36 86.7538 132.36 86.7534 132.36 86.753C132.36 86.7529 132.36 86.7527 132.36 86.7526C132.355 86.6979 132.354 86.6542 132.354 86.6209C132.529 86.5784 132.994 86.5312 134.081 86.7375ZM127.3 87.828C127.978 87.1511 129.03 87.073 129.796 87.5915C130.23 89.4107 131.782 91.0596 132.48 91.7276C132.997 92.2228 134.658 93.7072 136.334 94.1152C136.56 94.4402 136.684 94.8276 136.684 95.2364C136.684 95.763 136.481 96.2554 136.112 96.624C135.744 96.9927 135.251 97.1957 134.723 97.1957C134.196 97.1957 133.703 96.9927 133.333 96.6223L133.333 96.6222L133.332 96.6215L127.3 90.6003C126.932 90.2331 126.73 89.7408 126.73 89.2143C126.73 88.6877 126.932 88.1954 127.3 87.828ZM123.805 93.6647C124.173 93.2962 124.666 93.0931 125.192 93.0931C125.72 93.0931 126.214 93.2966 126.584 93.6666L131.442 98.5141C132.206 99.2802 132.206 100.527 131.444 101.29C131.074 101.659 130.579 101.862 130.051 101.862C129.522 101.862 129.028 101.659 128.659 101.292L128.659 101.292L124.974 97.6075C124.968 97.6018 124.962 97.5965 124.956 97.5906L123.803 96.4384C123.434 96.0689 123.23 95.5756 123.23 95.0494C123.231 94.5249 123.434 94.0342 123.805 93.6647ZM120.303 99.5002C120.672 99.1325 121.165 98.9299 121.694 98.9299C122.217 98.9299 122.707 99.1295 123.074 99.4909L126.77 103.185C127.138 103.552 127.341 104.044 127.341 104.57C127.341 105.096 127.138 105.588 126.768 105.956C126.4 106.324 125.907 106.527 125.38 106.527C124.851 106.527 124.357 106.323 123.988 105.956L122.648 104.618C122.648 104.618 122.647 104.617 122.647 104.617L120.303 102.276C119.934 101.907 119.73 101.414 119.73 100.888C119.73 100.362 119.934 99.8692 120.303 99.5002ZM117.974 106.511C118.344 106.141 118.838 105.938 119.366 105.938C119.893 105.938 120.387 106.141 120.757 106.51L122.099 107.851C122.468 108.218 122.67 108.71 122.67 109.236C122.67 109.761 122.467 110.253 122.096 110.623C121.728 110.992 121.235 111.195 120.707 111.195C120.18 111.195 119.687 110.992 119.316 110.62L119.148 110.453C119.146 110.451 119.144 110.448 119.142 110.446C119.139 110.444 119.137 110.442 119.134 110.439L117.975 109.285C117.21 108.518 117.209 107.274 117.974 106.511ZM145.231 121.712C144.709 121.19 143.862 121.189 143.34 121.711L142.15 122.9C141.019 124.03 138.97 123.888 136.989 123.751C134.837 123.601 132.612 123.447 131.172 124.925L126.246 129.846L113.925 117.544L118.285 113.191C119.006 113.633 119.838 113.87 120.708 113.87C121.951 113.87 123.116 113.388 123.987 112.516C124.863 111.643 125.346 110.478 125.346 109.236C125.346 109.224 125.345 109.213 125.345 109.201C125.357 109.201 125.368 109.202 125.38 109.202C126.621 109.202 127.786 108.722 128.658 107.851C129.534 106.978 130.017 105.813 130.017 104.57C130.017 104.559 130.016 104.548 130.016 104.536C130.028 104.536 130.039 104.537 130.051 104.537C131.292 104.537 132.457 104.057 133.335 103.183C134.246 102.27 134.697 101.069 134.688 99.87C134.7 99.8701 134.712 99.8708 134.724 99.8708C135.967 99.8706 137.132 99.3889 138.004 98.5154C138.878 97.6427 139.359 96.4782 139.359 95.2364C139.359 94.368 139.123 93.5377 138.683 92.8186L142.504 88.9987C142.789 88.7152 143.14 88.5372 143.508 88.4638C143.548 88.4595 143.587 88.4531 143.626 88.4454C144.217 88.364 144.837 88.5462 145.288 88.996C146.053 89.7621 146.053 91.0087 145.291 91.7721L144.127 92.9312C144.124 92.935 144.119 92.9385 144.116 92.9423L142.775 94.2806C142.252 94.8025 142.252 95.6495 142.774 96.1721C143.296 96.6948 144.143 96.6952 144.665 96.1733L145.834 95.0064C145.834 95.0061 145.834 95.0058 145.835 95.0056L146.011 94.8296C146.778 94.0697 148.021 94.0712 148.787 94.8364C149.156 95.2035 149.359 95.6953 149.359 96.2212C149.359 96.747 149.156 97.2388 148.784 97.6088L147.614 98.7817C147.614 98.7818 147.613 98.782 147.613 98.7822L146.273 100.117C145.75 100.638 145.748 101.485 146.269 102.009C146.79 102.532 147.637 102.534 148.161 102.013L149.507 100.671C149.875 100.303 150.368 100.1 150.896 100.1C151.423 100.1 151.917 100.303 152.287 100.674C152.656 101.041 152.859 101.533 152.859 102.059C152.859 102.585 152.656 103.077 152.285 103.446L149.952 105.78C149.43 106.303 149.43 107.15 149.952 107.672C150.213 107.933 150.555 108.063 150.898 108.063C151.24 108.063 151.582 107.933 151.844 107.672L152.987 106.527C152.994 106.521 153.001 106.516 153.007 106.509C153.375 106.141 153.868 105.938 154.396 105.938C154.924 105.938 155.417 106.141 155.786 106.511C156.55 107.274 156.549 108.518 155.786 109.283L154.623 110.445C154.623 110.445 154.622 110.445 154.622 110.446C154.622 110.446 154.621 110.447 154.621 110.447L152.775 112.29C152.253 112.812 152.252 113.659 152.774 114.182C153.035 114.443 153.378 114.574 153.72 114.574C154.062 114.574 154.405 114.444 154.666 114.183L155.568 113.282L159.895 117.603L147.576 129.907L143.162 125.499C143.47 125.301 143.764 125.068 144.041 124.792L145.23 123.604C145.753 123.082 145.753 122.235 145.231 121.712ZM167.687 123.369L153.351 137.687C153.016 138.022 152.567 138.207 152.087 138.207C151.607 138.207 151.158 138.022 150.823 137.687L148.459 135.326C148.124 134.992 147.94 134.544 147.94 134.066C147.94 133.588 148.124 133.14 148.459 132.806L162.795 118.487C163.131 118.152 163.58 117.968 164.059 117.968C164.539 117.968 164.988 118.152 165.324 118.488L167.687 120.844C168.022 121.179 168.207 121.627 168.207 122.107C168.206 122.586 168.022 123.034 167.687 123.369Z" fill="url(#paint1_linear_258_52196)"/>
<path d="M119.121 80.5132C119.382 80.7738 119.724 80.9039 120.066 80.9039C120.409 80.9039 120.751 80.773 121.013 80.5112C121.534 79.9883 121.534 79.1415 121.011 78.6197L116.137 73.7554C115.614 73.2336 114.767 73.2343 114.245 73.7573C113.724 74.2802 113.724 75.127 114.247 75.6488L119.121 80.5132Z" fill="url(#paint2_linear_258_52196)"/>
<path d="M153.698 80.904C154.04 80.904 154.382 80.7735 154.643 80.5128L159.513 75.6484C160.036 75.1265 160.036 74.2795 159.514 73.7569C158.992 73.2343 158.146 73.2338 157.623 73.7559L152.753 78.6202C152.23 79.1422 152.229 79.9891 152.752 80.5118C153.013 80.7733 153.355 80.904 153.698 80.904Z" fill="url(#paint3_linear_258_52196)"/>
<path d="M111.344 130.535C110.826 131.062 110.833 131.909 111.36 132.426L111.364 132.43C111.624 132.686 111.961 132.813 112.298 132.813C112.645 132.813 112.991 132.679 113.253 132.412C113.771 131.885 113.762 131.037 113.235 130.519C112.709 130.001 111.862 130.008 111.344 130.535Z" fill="url(#paint4_linear_258_52196)"/>
<path d="M148.503 119.785C148.707 119.785 148.913 119.739 149.107 119.641C149.766 119.309 150.031 118.504 149.699 117.845C149.366 117.185 148.561 116.92 147.902 117.253L147.895 117.257C147.235 117.589 146.974 118.392 147.306 119.051C147.541 119.517 148.014 119.785 148.503 119.785Z" fill="url(#paint5_linear_258_52196)"/>
</g>
<defs>
<filter id="filter0_d_258_52196" x="0" y="0" width="274.858" height="222.888" filterUnits="userSpaceOnUse" color-interpolation-filters="sRGB">
<feFlood flood-opacity="0" result="BackgroundImageFix"/>
<feColorMatrix in="SourceAlpha" type="matrix" values="0 0 0 0 0 0 0 0 0 0 0 0 0 0 0 0 0 0 127 0" result="hardAlpha"/>
<feOffset dy="4"/>
<feGaussianBlur stdDeviation="12"/>
<feComposite in2="hardAlpha" operator="out"/>
<feColorMatrix type="matrix" values="0 0 0 0 0 0 0 0 0 0 0 0 0 0 0 0 0 0 0.1 0"/>
<feBlend mode="normal" in2="BackgroundImageFix" result="effect1_dropShadow_258_52196"/>
<feBlend mode="normal" in="SourceGraphic" in2="effect1_dropShadow_258_52196" result="shape"/>
</filter>
<linearGradient id="paint0_linear_258_52196" x1="135.544" y1="73" x2="138.303" y2="73.0269" gradientUnits="userSpaceOnUse">
<stop stop-color="#F44336"/>
<stop offset="1" stop-color="#C62828"/>
</linearGradient>
<linearGradient id="paint1_linear_258_52196" x1="103.119" y1="83.911" x2="172.915" y2="86.5154" gradientUnits="userSpaceOnUse">
<stop stop-color="#F44336"/>
<stop offset="1" stop-color="#C62828"/>
</linearGradient>
<linearGradient id="paint2_linear_258_52196" x1="113.854" y1="73.3646" x2="121.633" y2="73.6094" gradientUnits="userSpaceOnUse">
<stop stop-color="#F44336"/>
<stop offset="1" stop-color="#C62828"/>
</linearGradient>
<linearGradient id="paint3_linear_258_52196" x1="152.36" y1="73.3646" x2="160.135" y2="73.6092" gradientUnits="userSpaceOnUse">
<stop stop-color="#F44336"/>
<stop offset="1" stop-color="#C62828"/>
</linearGradient>
<linearGradient id="paint4_linear_258_52196" x1="110.96" y1="130.135" x2="113.717" y2="130.222" gradientUnits="userSpaceOnUse">
<stop stop-color="#F44336"/>
<stop offset="1" stop-color="#C62828"/>
</linearGradient>
<linearGradient id="paint5_linear_258_52196" x1="147.162" y1="117.109" x2="149.924" y2="117.196" gradientUnits="userSpaceOnUse">
<stop stop-color="#F44336"/>
<stop offset="1" stop-color="#C62828"/>
</linearGradient>
<clipPath id="clip0_258_52196">
<rect width="68" height="68" fill="white" transform="translate(103 73)"/>
</clipPath>
</defs>
</svg>
