<svg width="239" height="225" viewBox="0 0 239 225" fill="none" xmlns="http://www.w3.org/2000/svg">
<g filter="url(#filter0_d_258_52194)">
<path d="M176.225 20H42.019C31.5117 20 23.2198 28.9674 24.0585 39.4372C28.331 92.6247 43.554 142.728 67.4962 187.486C72.4492 196.738 84.2541 199.759 93.084 194.097L206.022 121.583C213.697 116.664 216.387 106.827 212.494 98.5871C203.269 79.1183 196.955 58.0046 194.091 35.8155C192.92 26.7848 185.308 20 176.225 20Z" fill="white"/>
</g>
<g clip-path="url(#clip0_258_52194)">
<path d="M135.517 79.4316C136.164 79.4316 136.688 78.907 136.688 78.2598V65.5156C136.688 63.5771 135.111 62 133.173 62H90.5166C88.5781 62 87.001 63.5771 87.001 65.5156V118.484C87.001 120.423 88.5781 122 90.5166 122H133.173C135.111 122 136.688 120.423 136.688 118.484V109.851C136.688 109.204 136.164 108.679 135.517 108.679C134.869 108.679 134.345 109.204 134.345 109.851V118.484C134.345 119.131 133.819 119.656 133.173 119.656H90.5166C89.8704 119.656 89.3447 119.131 89.3447 118.484V65.5156C89.3447 64.8695 89.8704 64.3438 90.5166 64.3438H133.173C133.819 64.3438 134.345 64.8695 134.345 65.5156V78.2598C134.345 78.907 134.869 79.4316 135.517 79.4316Z" fill="url(#paint0_linear_258_52194)"/>
<path d="M111.845 68.3281C105.9 68.3281 101.063 73.1646 101.063 79.1094C101.063 82.1934 102.365 84.9787 104.448 86.9456C104.487 86.9873 104.529 87.0268 104.574 87.0628C106.492 88.8181 109.046 89.8905 111.845 89.8905C114.644 89.8905 117.197 88.818 119.115 87.0628C119.161 87.0268 119.202 86.9872 119.241 86.9456C121.324 84.9787 122.626 82.1934 122.626 79.1094C122.626 73.1646 117.79 68.3281 111.845 68.3281ZM111.845 87.5469C109.931 87.5469 108.165 86.9056 106.748 85.828C107.778 84.0016 109.7 82.8594 111.845 82.8594C113.989 82.8594 115.911 84.0016 116.941 85.828C115.524 86.9056 113.758 87.5469 111.845 87.5469ZM109.97 78.6406V77.8789C109.97 76.8451 110.811 76.0039 111.845 76.0039C112.879 76.0039 113.72 76.8451 113.72 77.8789V78.6406C113.72 79.6745 112.879 80.5156 111.845 80.5156C110.811 80.5156 109.97 79.6745 109.97 78.6406ZM118.635 84.1113C117.77 82.8295 116.573 81.8326 115.182 81.2171C115.734 80.5038 116.063 79.6102 116.063 78.6406V77.8789C116.063 75.5526 114.171 73.6602 111.845 73.6602C109.518 73.6602 107.626 75.5526 107.626 77.8789V78.6406C107.626 79.6102 107.956 80.5038 108.508 81.2171C107.117 81.8326 105.919 82.8295 105.055 84.1113C104.02 82.7105 103.407 80.9805 103.407 79.1094C103.407 74.4569 107.192 70.6719 111.845 70.6719C116.497 70.6719 120.282 74.4569 120.282 79.1094C120.282 80.9805 119.669 82.7105 118.635 84.1113Z" fill="url(#paint1_linear_258_52194)"/>
<path d="M118.173 113.328H111.845C111.198 113.328 110.673 113.853 110.673 114.5C110.673 115.147 111.198 115.672 111.845 115.672H118.173C118.82 115.672 119.345 115.147 119.345 114.5C119.345 113.853 118.82 113.328 118.173 113.328Z" fill="url(#paint2_linear_258_52194)"/>
<path d="M118.173 106.766H101.532C100.885 106.766 100.36 107.29 100.36 107.938C100.36 108.585 100.885 109.109 101.532 109.109H118.173C118.82 109.109 119.345 108.585 119.345 107.938C119.345 107.29 118.82 106.766 118.173 106.766Z" fill="url(#paint3_linear_258_52194)"/>
<path d="M118.173 100.203H101.532C100.885 100.203 100.36 100.728 100.36 101.375C100.36 102.022 100.885 102.547 101.532 102.547H118.173C118.82 102.547 119.345 102.022 119.345 101.375C119.345 100.728 118.82 100.203 118.173 100.203Z" fill="url(#paint4_linear_258_52194)"/>
<path d="M97.355 93.984C97.1371 93.766 96.8348 93.6406 96.5254 93.6406C96.2171 93.6406 95.9147 93.766 95.6969 93.984C95.4789 94.202 95.3535 94.5043 95.3535 94.8125C95.3535 95.1207 95.4788 95.423 95.6969 95.641C95.916 95.859 96.2171 95.9844 96.5254 95.9844C96.8348 95.9844 97.1359 95.859 97.355 95.641C97.5729 95.423 97.6984 95.1207 97.6984 94.8125C97.6984 94.5043 97.573 94.202 97.355 93.984Z" fill="url(#paint5_linear_258_52194)"/>
<path d="M97.355 100.546C97.1359 100.329 96.8348 100.203 96.5254 100.203C96.2171 100.203 95.916 100.329 95.6969 100.546C95.4789 100.764 95.3535 101.067 95.3535 101.375C95.3535 101.683 95.4788 101.986 95.6969 102.204C95.916 102.421 96.2171 102.547 96.5254 102.547C96.8348 102.547 97.1359 102.421 97.355 102.204C97.5729 101.986 97.6984 101.683 97.6984 101.375C97.6984 101.067 97.573 100.764 97.355 100.546Z" fill="url(#paint6_linear_258_52194)"/>
<path d="M97.355 107.109C97.1359 106.891 96.8348 106.766 96.5254 106.766C96.2171 106.766 95.916 106.891 95.6969 107.109C95.4789 107.327 95.3535 107.629 95.3535 107.938C95.3535 108.246 95.4788 108.548 95.6969 108.766C95.9147 108.984 96.2171 109.109 96.5254 109.109C96.8348 109.109 97.1371 108.984 97.355 108.766C97.5729 108.548 97.6984 108.246 97.6984 107.938C97.6984 107.629 97.573 107.327 97.355 107.109Z" fill="url(#paint7_linear_258_52194)"/>
<path d="M118.173 93.6406H101.532C100.885 93.6406 100.36 94.1653 100.36 94.8125C100.36 95.4597 100.885 95.9844 101.532 95.9844H118.173C118.82 95.9844 119.345 95.4597 119.345 94.8125C119.345 94.1653 118.82 93.6406 118.173 93.6406Z" fill="url(#paint8_linear_258_52194)"/>
<path d="M144.54 77.2719C143.401 76.6145 142.075 76.4399 140.805 76.7801C139.535 77.1204 138.473 77.9349 137.816 79.0734L123.069 104.616C122.988 104.756 122.937 104.911 122.919 105.072L121.881 114.37C121.83 114.833 122.057 115.282 122.46 115.515C122.642 115.62 122.844 115.672 123.046 115.672C123.291 115.672 123.535 115.595 123.741 115.444L131.274 109.896C131.404 109.8 131.513 109.678 131.594 109.538L146.341 83.9954C147.698 81.6451 146.89 78.6289 144.54 77.2719ZM124.508 111.968L125.05 107.113L128.441 109.071L124.508 111.968ZM130.15 107.351L125.685 104.773L137.519 84.2757L141.984 86.8538L130.15 107.351ZM144.311 82.8234L143.156 84.8241L138.691 82.246L139.846 80.2453C140.19 79.6489 140.746 79.2223 141.411 79.0441C142.077 78.8657 142.771 78.9574 143.368 79.3017C143.964 79.646 144.391 80.2019 144.569 80.867C144.747 81.5322 144.656 82.227 144.311 82.8234Z" fill="url(#paint9_linear_258_52194)"/>
</g>
<defs>
<filter id="filter0_d_258_52194" x="0" y="0" width="238.265" height="224.957" filterUnits="userSpaceOnUse" color-interpolation-filters="sRGB">
<feFlood flood-opacity="0" result="BackgroundImageFix"/>
<feColorMatrix in="SourceAlpha" type="matrix" values="0 0 0 0 0 0 0 0 0 0 0 0 0 0 0 0 0 0 127 0" result="hardAlpha"/>
<feOffset dy="4"/>
<feGaussianBlur stdDeviation="12"/>
<feComposite in2="hardAlpha" operator="out"/>
<feColorMatrix type="matrix" values="0 0 0 0 0 0 0 0 0 0 0 0 0 0 0 0 0 0 0.1 0"/>
<feBlend mode="normal" in2="BackgroundImageFix" result="effect1_dropShadow_258_52194"/>
<feBlend mode="normal" in="SourceGraphic" in2="effect1_dropShadow_258_52194" result="shape"/>
</filter>
<linearGradient id="paint0_linear_258_52194" x1="87.001" y1="62" x2="138.216" y2="63.3333" gradientUnits="userSpaceOnUse">
<stop stop-color="#F44336"/>
<stop offset="1" stop-color="#C62828"/>
</linearGradient>
<linearGradient id="paint1_linear_258_52194" x1="101.063" y1="68.3281" x2="123.282" y2="69.0266" gradientUnits="userSpaceOnUse">
<stop stop-color="#F44336"/>
<stop offset="1" stop-color="#C62828"/>
</linearGradient>
<linearGradient id="paint2_linear_258_52194" x1="110.673" y1="113.328" x2="119.498" y2="114.355" gradientUnits="userSpaceOnUse">
<stop stop-color="#F44336"/>
<stop offset="1" stop-color="#C62828"/>
</linearGradient>
<linearGradient id="paint3_linear_258_52194" x1="100.36" y1="106.766" x2="118.749" y2="111.448" gradientUnits="userSpaceOnUse">
<stop stop-color="#F44336"/>
<stop offset="1" stop-color="#C62828"/>
</linearGradient>
<linearGradient id="paint4_linear_258_52194" x1="100.36" y1="100.203" x2="118.749" y2="104.886" gradientUnits="userSpaceOnUse">
<stop stop-color="#F44336"/>
<stop offset="1" stop-color="#C62828"/>
</linearGradient>
<linearGradient id="paint5_linear_258_52194" x1="95.3535" y1="93.6406" x2="97.7698" y2="93.7166" gradientUnits="userSpaceOnUse">
<stop stop-color="#F44336"/>
<stop offset="1" stop-color="#C62828"/>
</linearGradient>
<linearGradient id="paint6_linear_258_52194" x1="95.3535" y1="100.203" x2="97.7698" y2="100.279" gradientUnits="userSpaceOnUse">
<stop stop-color="#F44336"/>
<stop offset="1" stop-color="#C62828"/>
</linearGradient>
<linearGradient id="paint7_linear_258_52194" x1="95.3535" y1="106.766" x2="97.7698" y2="106.842" gradientUnits="userSpaceOnUse">
<stop stop-color="#F44336"/>
<stop offset="1" stop-color="#C62828"/>
</linearGradient>
<linearGradient id="paint8_linear_258_52194" x1="100.36" y1="93.6406" x2="118.749" y2="98.3232" gradientUnits="userSpaceOnUse">
<stop stop-color="#F44336"/>
<stop offset="1" stop-color="#C62828"/>
</linearGradient>
<linearGradient id="paint9_linear_258_52194" x1="121.874" y1="76.6104" x2="147.779" y2="77.1342" gradientUnits="userSpaceOnUse">
<stop stop-color="#F44336"/>
<stop offset="1" stop-color="#C62828"/>
</linearGradient>
<clipPath id="clip0_258_52194">
<rect width="60" height="60" fill="white" transform="translate(87 62)"/>
</clipPath>
</defs>
</svg>
