<svg width="238" height="225" viewBox="0 0 238 225" fill="none" xmlns="http://www.w3.org/2000/svg">
<g filter="url(#filter0_d_258_52198)">
<path d="M44.1458 35.8193C41.2856 58.0138 34.9805 79.1325 25.7677 98.6061C21.8804 106.832 24.5668 116.672 32.2309 121.607L145.012 194.139C153.83 199.802 165.618 196.781 170.564 187.526C194.473 142.774 209.691 92.658 213.942 39.4419C214.779 28.9695 206.514 20 196.006 20H61.9866C52.9003 20.0158 45.3152 26.8023 44.1458 35.8193Z" fill="white"/>
</g>
<path fill-rule="evenodd" clip-rule="evenodd" d="M147.786 62.0008C148.112 61.9885 148.426 62.1132 148.656 62.3432C148.887 62.5734 149.011 62.8887 148.999 63.2139C148.989 63.4788 148.736 69.7877 146.085 77.2875C143.963 83.2964 140.926 88.3053 137.056 92.1748C136.189 93.0423 135.269 93.886 134.314 94.693C136.566 98.519 135.86 101.585 134.823 103.523C132.435 107.985 125.95 110.748 121.312 110.748C120.838 110.748 120.411 110.462 120.229 110.024C120.048 109.586 120.148 109.082 120.483 108.747C122.837 106.394 122.689 103.491 122.565 102.543L122.155 102.132C120.232 102.94 118.322 103.591 116.464 104.068C115.826 104.231 115.116 104.198 114.427 103.927C113.907 105.055 113.144 106.143 112.196 107.091C109.18 110.107 101.828 110.72 101.516 110.744C101.485 110.747 101.455 110.748 101.424 110.748C101.115 110.748 100.816 110.625 100.595 110.405C100.353 110.162 100.229 109.826 100.256 109.484C100.281 109.172 100.893 101.821 103.91 98.8039C104.857 97.8561 105.946 97.0926 107.074 96.5726C106.818 95.9216 106.76 95.2098 106.932 94.5371C107.41 92.6784 108.06 90.7673 108.868 88.8454L108.457 88.435C107.509 88.3103 104.606 88.1632 102.253 90.5166C102.029 90.7407 101.729 90.8599 101.424 90.8599C101.273 90.8599 101.121 90.8307 100.976 90.7706C100.538 90.5893 100.252 90.1619 100.252 89.688C100.252 85.0497 103.014 78.565 107.477 76.1768C109.415 75.1395 112.481 74.4334 116.307 76.6855C117.114 75.7303 117.958 74.8108 118.825 73.9437C122.694 70.0742 127.703 67.0364 133.713 64.9146C141.212 62.2639 147.521 62.0103 147.786 62.0008ZM108.583 78.2431C105.714 79.7785 103.6 83.6444 102.872 87.1674C106.018 85.4955 109.119 86.1624 109.28 86.1989C109.62 86.2756 109.824 86.4858 109.883 86.5467L109.893 86.5571C109.896 86.5594 109.897 86.5611 109.899 86.5622L109.9 86.5632C111.275 83.7232 112.926 81.0337 114.824 78.5374C112.596 77.3178 110.5 77.2173 108.583 78.2431ZM102.759 108.241C105.148 107.894 108.928 107.045 110.539 105.433C111.441 104.531 112.125 103.485 112.511 102.433L108.567 98.4894C107.515 98.8747 106.469 99.5588 105.567 100.461C103.956 102.072 103.106 105.852 102.759 108.241ZM114.857 101.465C115.15 101.757 115.542 101.884 115.881 101.797C117.343 101.422 118.842 100.931 120.357 100.334L110.666 90.6434C110.069 92.1576 109.578 93.6574 109.203 95.1192C109.116 95.4577 109.244 95.8504 109.536 96.1433L112.562 99.1699L114.857 101.465ZM123.833 108.128C127.356 107.4 131.222 105.286 132.757 102.417C133.783 100.5 133.682 98.4045 132.463 96.1763C129.966 98.0744 127.277 99.7245 124.437 101.1L124.439 101.102C124.44 101.104 124.443 101.107 124.446 101.11L124.458 101.121L124.458 101.121C124.522 101.184 124.712 101.37 124.793 101.692C125.204 103.323 124.956 106.014 123.833 108.128ZM132.019 93.5494C133.206 92.5935 134.343 91.5734 135.399 90.5176C138.871 87.0457 141.634 82.5651 143.623 77.1966L133.803 67.3773C128.435 69.3662 123.954 72.1292 120.483 75.601C119.427 76.6564 118.407 77.7936 117.45 78.981C115.154 81.8333 113.208 84.973 111.659 88.3229L122.677 99.3406C126.027 97.7919 129.167 95.8463 132.019 93.5494ZM136.275 66.5341L144.466 74.725C145.852 70.2629 146.371 66.3806 146.558 64.4424C144.62 64.629 140.738 65.148 136.275 66.5341ZM135.398 75.6021C133.108 73.3124 129.401 73.3122 127.111 75.6021C124.827 77.886 124.827 81.6031 127.112 83.8889C129.396 86.1722 133.114 86.1731 135.398 83.8886C137.688 81.599 137.688 77.892 135.398 75.6021ZM133.741 82.2313C132.37 83.6017 130.14 83.6017 128.769 82.2315C127.398 80.8602 127.398 78.6296 128.769 77.2594C130.142 75.8856 132.367 75.8853 133.741 77.2594C135.115 78.633 135.115 80.8574 133.741 82.2313ZM120.483 90.5175C120.025 90.0593 119.283 90.0593 118.825 90.5175C118.368 90.9745 118.368 91.7163 118.825 92.1745C119.283 92.6315 120.025 92.6315 120.483 92.1745C120.94 91.7163 120.94 90.9745 120.483 90.5175ZM117.168 110.404C116.71 109.946 115.968 109.947 115.511 110.404L112.197 113.72C111.739 114.177 111.739 114.919 112.197 115.377C112.655 115.834 113.397 115.834 113.854 115.377L117.168 112.061C117.626 111.604 117.626 110.862 117.168 110.404ZM98.9389 93.8314C99.3967 93.3739 100.139 93.3739 100.596 93.8316C101.054 94.2893 101.054 95.0314 100.596 95.4889L97.2806 98.8029C96.8226 99.2607 96.0807 99.2602 95.6233 98.8027C95.1658 98.345 95.1659 97.6029 95.6236 97.1454L98.9389 93.8314ZM108.882 112.062C108.425 111.605 107.683 111.605 107.225 112.062L99.2867 119.999C98.8289 120.457 98.8289 121.199 99.2865 121.657C99.7439 122.114 100.486 122.115 100.944 121.657L108.882 113.72C109.34 113.262 109.34 112.52 108.882 112.062ZM97.8499 112.062C98.3076 111.605 99.0497 111.605 99.5072 112.062C99.9648 112.52 99.9648 113.262 99.5071 113.72L91.5688 121.657C91.1111 122.115 90.3689 122.114 89.9115 121.657C89.4539 121.199 89.4539 120.457 89.9117 119.999L97.8499 112.062ZM98.9376 102.118C98.4801 101.66 97.7379 101.66 97.2803 102.118L89.3432 110.056C88.8856 110.514 88.8856 111.256 89.3433 111.713C89.8009 112.171 90.5429 112.171 91.0006 111.713L98.9377 103.775C99.3953 103.317 99.3953 102.575 98.9376 102.118ZM123.797 85.5453C124.255 85.0877 124.997 85.0877 125.454 85.5453C125.912 86.0031 125.912 86.7451 125.454 87.2027L123.797 88.8598C123.34 89.3174 122.598 89.3174 122.14 88.8598C121.682 88.402 121.682 87.66 122.14 87.2024L123.797 85.5453Z" fill="url(#paint0_linear_258_52198)"/>
<defs>
<filter id="filter0_d_258_52198" x="0" y="0" width="238" height="225" filterUnits="userSpaceOnUse" color-interpolation-filters="sRGB">
<feFlood flood-opacity="0" result="BackgroundImageFix"/>
<feColorMatrix in="SourceAlpha" type="matrix" values="0 0 0 0 0 0 0 0 0 0 0 0 0 0 0 0 0 0 127 0" result="hardAlpha"/>
<feOffset dy="4"/>
<feGaussianBlur stdDeviation="12"/>
<feComposite in2="hardAlpha" operator="out"/>
<feColorMatrix type="matrix" values="0 0 0 0 0 0 0 0 0 0 0 0 0 0 0 0 0 0 0.1 0"/>
<feBlend mode="normal" in2="BackgroundImageFix" result="effect1_dropShadow_258_52198"/>
<feBlend mode="normal" in="SourceGraphic" in2="effect1_dropShadow_258_52198" result="shape"/>
</filter>
<linearGradient id="paint0_linear_258_52198" x1="89" y1="62" x2="150.825" y2="63.9436" gradientUnits="userSpaceOnUse">
<stop stop-color="#F44336"/>
<stop offset="1" stop-color="#C62828"/>
</linearGradient>
</defs>
</svg>
