<svg width="267" height="266" viewBox="0 0 267 266" fill="none" xmlns="http://www.w3.org/2000/svg">
<g filter="url(#filter0_d_258_52195)">
<path d="M145.201 22.8447L32.2789 95.3587C23.4173 101.052 21.3127 113.088 27.7057 121.438C65.32 170.593 114.66 210.29 171.58 236.354C181.154 240.735 192.437 236.022 196.029 226.121L241.793 99.9768C244.894 91.4364 241.112 81.9946 233.042 77.8193C208.372 65.0404 186.55 47.5326 168.779 26.4981C162.924 19.5392 152.86 17.9261 145.201 22.8447Z" fill="white"/>
</g>
<path d="M168.906 116.629L168.896 116.59C168.741 115.961 168.106 115.578 167.477 115.734C166.849 115.889 166.466 116.524 166.622 117.153L166.629 117.181C166.759 117.718 167.238 118.077 167.766 118.077C167.858 118.077 167.951 118.066 168.043 118.044C168.672 117.891 169.059 117.258 168.906 116.629Z" fill="url(#paint0_linear_258_52195)"/>
<path d="M137.878 131.233C134.964 129.475 133.225 126.397 133.225 122.999C133.225 121.949 133.393 120.917 133.725 119.932C133.931 119.319 133.601 118.654 132.988 118.448C132.375 118.242 131.71 118.571 131.504 119.185C131.091 120.411 130.882 121.694 130.882 122.999C130.882 127.225 133.045 131.054 136.667 133.24C136.857 133.354 137.065 133.408 137.271 133.408C137.668 133.408 138.056 133.206 138.276 132.841C138.61 132.287 138.432 131.567 137.878 131.233Z" fill="url(#paint1_linear_258_52195)"/>
<path d="M151.025 114.296C148.8 112.201 145.891 111.047 142.833 111.047C141.401 111.047 140 111.298 138.669 111.793C138.062 112.019 137.754 112.693 137.979 113.3C138.204 113.907 138.879 114.215 139.486 113.99C140.555 113.592 141.681 113.391 142.833 113.391C145.291 113.391 147.63 114.318 149.419 116.002C149.645 116.215 149.934 116.321 150.222 116.321C150.533 116.321 150.844 116.197 151.075 115.952C151.519 115.481 151.496 114.74 151.025 114.296Z" fill="url(#paint2_linear_258_52195)"/>
<path d="M174.828 123.352H166.013V120.928C166.013 119.75 165.054 118.791 163.876 118.791H162.303C161.497 115.047 159.642 111.637 156.919 108.914C152.299 104.294 145.697 102.233 139.26 103.401C138.623 103.517 138.2 104.126 138.316 104.763C138.432 105.4 139.042 105.822 139.678 105.707C145.359 104.676 151.185 106.494 155.262 110.571C157.545 112.854 159.137 115.683 159.899 118.791H153.503C152.324 118.791 151.366 119.75 151.366 120.928V123.352H142.55C141.903 123.352 141.378 123.877 141.378 124.524V131.712C141.378 132.812 141.807 133.813 142.504 134.56V140.573C137.933 140.495 133.664 138.687 130.405 135.428C126.222 131.245 124.43 125.282 125.611 119.477C125.741 118.843 125.331 118.224 124.697 118.095C124.063 117.966 123.444 118.376 123.315 119.01C121.977 125.587 124.007 132.344 128.748 137.085C132.395 140.732 137.363 142.826 142.504 142.915V147.161C142.504 147.271 142.512 147.379 142.525 147.485C129.163 147.319 118.343 136.4 118.343 122.999C118.343 118.809 119.409 114.713 121.434 111.083L125.387 115.056C125.607 115.277 125.906 115.401 126.218 115.401H133.588L140.813 122.626C141.041 122.855 141.341 122.969 141.641 122.969C141.941 122.969 142.241 122.855 142.47 122.626C142.927 122.168 142.927 121.426 142.47 120.969L135.245 113.744V106.374C135.245 106.063 135.121 105.764 134.9 105.544L130.936 101.589C134.561 99.5718 138.65 98.5096 142.833 98.5096C152.339 98.5096 161.065 104.085 165.065 112.713C165.263 113.14 165.686 113.392 166.128 113.392C166.293 113.392 166.461 113.357 166.62 113.283C167.208 113.011 167.463 112.314 167.191 111.727C165.067 107.146 161.704 103.265 157.464 100.502C153.11 97.6654 148.051 96.1662 142.833 96.1662C138.026 96.1662 133.331 97.4469 129.216 99.8741L125.844 96.5097C125.508 96.1751 125.005 96.0753 124.567 96.2569C124.13 96.4384 123.845 96.8655 123.845 97.3391V103.98H117.183C116.71 103.98 116.283 104.265 116.101 104.702C115.92 105.139 116.019 105.642 116.353 105.978L119.72 109.361C117.285 113.481 116 118.184 116 122.999C116 130.167 118.791 136.905 123.859 141.973C128.927 147.042 135.666 149.833 142.833 149.833L172.201 149.834C173.675 149.834 174.874 148.635 174.874 147.161V134.56C175.601 133.785 176 132.778 176 131.71V124.524C176 123.877 175.475 123.352 174.828 123.352ZM126.188 100.163L132.901 106.86V111.395L126.188 104.667V100.163ZM124.53 106.323L131.244 113.057H126.705L120.003 106.323H124.53ZM153.709 121.135H163.669V123.352H153.709V121.135ZM172.53 141.865H164.841C164.194 141.865 163.669 142.39 163.669 143.037C163.669 143.684 164.194 144.209 164.841 144.209H172.53V147.161C172.53 147.343 172.383 147.49 172.201 147.49H146.614C146.605 147.49 146.597 147.489 146.589 147.489H145.165C144.989 147.482 144.848 147.338 144.848 147.161V135.826C145.077 135.865 145.312 135.886 145.552 135.886H155.216C155.424 137.619 156.902 138.966 158.689 138.966C160.479 138.966 161.959 137.614 162.163 135.878L171.823 135.884C171.824 135.884 171.825 135.884 171.826 135.884C172.064 135.884 172.3 135.863 172.53 135.824V141.865H172.53ZM157.534 135.467V133.408H159.844V135.467C159.844 136.104 159.326 136.623 158.689 136.623C158.052 136.623 157.534 136.104 157.534 135.467ZM173.656 131.71C173.656 132.199 173.466 132.659 173.12 133.005C172.774 133.351 172.314 133.541 171.826 133.541C171.825 133.541 171.825 133.541 171.824 133.541L162.188 133.535V132.461C162.188 131.691 161.561 131.064 160.791 131.064H156.587C155.817 131.064 155.19 131.691 155.19 132.461V133.543H145.552C144.543 133.543 143.722 132.722 143.722 131.712V125.696H173.656V131.71H173.656Z" fill="url(#paint3_linear_258_52195)"/>
<path d="M159.928 142.208C159.71 141.991 159.408 141.865 159.099 141.865C158.79 141.865 158.489 141.99 158.27 142.208C158.052 142.426 157.928 142.729 157.928 143.037C157.928 143.345 158.052 143.647 158.27 143.865C158.489 144.083 158.79 144.209 159.099 144.209C159.408 144.209 159.709 144.083 159.928 143.865C160.146 143.647 160.271 143.345 160.271 143.037C160.271 142.729 160.146 142.426 159.928 142.208Z" fill="url(#paint4_linear_258_52195)"/>
<defs>
<filter id="filter0_d_258_52195" x="0" y="0" width="266.872" height="265.996" filterUnits="userSpaceOnUse" color-interpolation-filters="sRGB">
<feFlood flood-opacity="0" result="BackgroundImageFix"/>
<feColorMatrix in="SourceAlpha" type="matrix" values="0 0 0 0 0 0 0 0 0 0 0 0 0 0 0 0 0 0 127 0" result="hardAlpha"/>
<feOffset dy="4"/>
<feGaussianBlur stdDeviation="12"/>
<feComposite in2="hardAlpha" operator="out"/>
<feColorMatrix type="matrix" values="0 0 0 0 0 0 0 0 0 0 0 0 0 0 0 0 0 0 0.1 0"/>
<feBlend mode="normal" in2="BackgroundImageFix" result="effect1_dropShadow_258_52195"/>
<feBlend mode="normal" in="SourceGraphic" in2="effect1_dropShadow_258_52195" result="shape"/>
</filter>
<linearGradient id="paint0_linear_258_52195" x1="166.587" y1="115.699" x2="169.011" y2="115.775" gradientUnits="userSpaceOnUse">
<stop stop-color="#F44336"/>
<stop offset="1" stop-color="#C62828"/>
</linearGradient>
<linearGradient id="paint1_linear_258_52195" x1="130.882" y1="118.386" x2="138.68" y2="118.51" gradientUnits="userSpaceOnUse">
<stop stop-color="#F44336"/>
<stop offset="1" stop-color="#C62828"/>
</linearGradient>
<linearGradient id="paint2_linear_258_52195" x1="137.905" y1="111.047" x2="151.728" y2="112.159" gradientUnits="userSpaceOnUse">
<stop stop-color="#F44336"/>
<stop offset="1" stop-color="#C62828"/>
</linearGradient>
<linearGradient id="paint3_linear_258_52195" x1="116" y1="96.1662" x2="177.81" y2="98.3386" gradientUnits="userSpaceOnUse">
<stop stop-color="#F44336"/>
<stop offset="1" stop-color="#C62828"/>
</linearGradient>
<linearGradient id="paint4_linear_258_52195" x1="157.928" y1="141.865" x2="160.343" y2="141.941" gradientUnits="userSpaceOnUse">
<stop stop-color="#F44336"/>
<stop offset="1" stop-color="#C62828"/>
</linearGradient>
</defs>
</svg>
