<svg width="24" height="24" viewBox="0 0 24 24" fill="none" xmlns="http://www.w3.org/2000/svg">
<path d="M3 9.703V19C3 20.105 3.895 21 5 21H18.999C20.104 21 20.999 20.105 20.999 19V9.703" stroke="white" stroke-width="1.5" stroke-linecap="round" stroke-linejoin="round"/>
<path fill-rule="evenodd" clip-rule="evenodd" d="M3.88582 8.04405L10.8798 3.33905C11.5568 2.88405 12.4418 2.88405 13.1188 3.33905L20.1128 8.04405C21.2908 8.83705 21.2908 10.5701 20.1128 11.3631L14.2388 15.3151C12.8848 16.2261 11.1148 16.2261 9.76082 15.3151L3.88682 11.3631C2.70782 10.5701 2.70782 8.83605 3.88582 8.04405Z" stroke="white" stroke-width="1.5" stroke-linecap="round" stroke-linejoin="round"/>
<path d="M9.11984 14.88L3.58984 20.41" stroke="white" stroke-width="1.5" stroke-linecap="round" stroke-linejoin="round"/>
<path d="M20.4099 20.41L14.8799 14.88" stroke="white" stroke-width="1.5" stroke-linecap="round" stroke-linejoin="round"/>
</svg>
