<svg width="24" height="24" viewBox="0 0 24 24" fill="none" xmlns="http://www.w3.org/2000/svg">
<g clip-path="url(#clip0_276_42206)">
<path d="M11.0735 16.2778C11.2564 16.0945 11.2564 15.7979 11.0735 15.6146C10.8904 15.4319 10.5938 15.4319 10.4105 15.6146C10.2278 15.7979 10.2278 16.0945 10.4105 16.2778C10.5938 16.4605 10.8904 16.4605 11.0735 16.2778Z" fill="url(#paint0_linear_276_42206)"/>
<path d="M8.85938 5.15479C8.85938 7.99713 11.1718 10.3098 14.0142 10.3098C16.8565 10.3098 19.1689 7.99713 19.1689 5.15479C19.1689 2.31244 16.8565 0 14.0142 0C11.1718 0 8.85938 2.31244 8.85938 5.15479ZM18.2318 5.15479C18.2318 7.48041 16.3398 9.37244 14.0142 9.37244C11.6885 9.37244 9.79651 7.48041 9.79651 5.15479C9.79651 2.82935 11.6885 0.937317 14.0142 0.937317C16.3398 0.937317 18.2318 2.82935 18.2318 5.15479Z" fill="url(#paint1_linear_276_42206)"/>
<path d="M5.4446 23.8611C5.62624 24.0442 5.92195 24.0462 6.10597 23.8649L8.37794 21.6266C8.76393 21.2406 8.8813 20.6692 8.71156 20.1724L9.20027 19.7011C9.46339 19.4469 9.80983 19.3069 10.176 19.3069H16.4058C17.5111 19.3069 18.5557 18.8824 19.3476 18.1117C19.3802 18.0801 19.1002 18.4098 23.5977 13.0346C24.2647 12.2454 24.1649 11.0604 23.375 10.3926C22.59 9.73101 21.4141 9.82604 20.7453 10.6017L17.98 13.4438C17.6308 13.0141 17.0983 12.7462 16.523 12.7462H11.2974C10.5538 12.4351 9.76479 12.2776 8.9507 12.2776C6.69411 12.2776 4.72371 13.3199 3.66628 15.274C3.22078 15.1896 2.75093 15.3243 2.41292 15.6623L0.183609 17.8982C0.00160247 18.0808 0.00123629 18.3761 0.182877 18.5593L5.4446 23.8611ZM8.95052 13.2148C9.66829 13.2148 10.3623 13.3592 11.0136 13.6442C11.0729 13.6702 11.1368 13.6835 11.2014 13.6835H16.523C17.0311 13.6835 17.4603 14.0979 17.4603 14.6207C17.4603 15.1376 17.0399 15.558 16.523 15.558H12.6996C12.4409 15.558 12.231 15.7678 12.231 16.0265C12.231 16.2854 12.4409 16.4951 12.6996 16.4951H16.523C17.5567 16.4951 18.3975 15.6543 18.3975 14.6207C18.3975 14.5383 18.3916 14.4566 18.381 14.3757C21.056 11.626 21.4332 11.2396 21.4493 11.2204C21.7833 10.8262 22.3762 10.7762 22.7706 11.1087C23.1654 11.4425 23.2153 12.035 22.8804 12.4314L18.6773 17.4562C18.0635 18.0455 17.2576 18.3697 16.4058 18.3697H10.176C9.56557 18.3697 8.98769 18.6032 8.54933 19.0267L8.15108 19.4111L4.47981 15.74C5.33785 14.1303 6.94789 13.2148 8.95052 13.2148ZM3.07613 16.3246C3.23067 16.1701 3.46797 16.1423 3.65639 16.2587C3.7375 16.3082 3.50459 16.0961 7.71529 20.301C7.9026 20.4883 7.89253 20.7867 7.71785 20.9614L5.78096 22.8696L1.17641 18.2298L3.07613 16.3246Z" fill="url(#paint2_linear_276_42206)"/>
<path d="M13.4516 2.34277V2.89191C12.9062 3.08527 12.5143 3.6062 12.5143 4.21722C12.5143 4.99231 13.1449 5.62311 13.9202 5.62311C14.1786 5.62311 14.3888 5.83331 14.3888 6.09167C14.3888 6.35004 14.1786 6.56024 13.9202 6.56024C13.7201 6.56024 13.5038 6.43445 13.3118 6.20575C13.1451 6.00763 12.8496 5.98218 12.6515 6.14862C12.4534 6.31525 12.4277 6.61078 12.5943 6.8089C12.8448 7.10681 13.1395 7.31445 13.4516 7.41919V7.96613C13.4516 8.22504 13.6615 8.43469 13.9202 8.43469C14.1789 8.43469 14.3888 8.22504 14.3888 7.96613V7.41699C14.9343 7.22345 15.3261 6.70251 15.3261 6.09167C15.3261 5.31641 14.6955 4.68579 13.9202 4.68579C13.6619 4.68579 13.4516 4.47559 13.4516 4.21722C13.4516 3.95886 13.6619 3.74847 13.9202 3.74847C14.0863 3.74847 14.2615 3.83325 14.4271 3.99347C14.6131 4.17346 14.9097 4.16852 15.0897 3.98267C15.2697 3.79663 15.2648 3.5 15.0789 3.32001C14.8411 3.08984 14.603 2.95966 14.3888 2.88861V2.34277C14.3888 2.08386 14.1789 1.87402 13.9202 1.87402C13.6615 1.87402 13.4516 2.08386 13.4516 2.34277Z" fill="url(#paint3_linear_276_42206)"/>
</g>
<defs>
<linearGradient id="paint0_linear_276_42206" x1="10.2734" y1="15.9462" x2="11.2107" y2="15.9462" gradientUnits="userSpaceOnUse">
<stop stop-color="#FE8C00"/>
<stop offset="1" stop-color="#F83600"/>
</linearGradient>
<linearGradient id="paint1_linear_276_42206" x1="8.85938" y1="5.15488" x2="19.1689" y2="5.15488" gradientUnits="userSpaceOnUse">
<stop stop-color="#FE8C00"/>
<stop offset="1" stop-color="#F83600"/>
</linearGradient>
<linearGradient id="paint2_linear_276_42206" x1="0.046875" y1="16.9759" x2="24.0394" y2="16.9759" gradientUnits="userSpaceOnUse">
<stop stop-color="#FE8C00"/>
<stop offset="1" stop-color="#F83600"/>
</linearGradient>
<linearGradient id="paint3_linear_276_42206" x1="12.4844" y1="5.15436" x2="15.3261" y2="5.15436" gradientUnits="userSpaceOnUse">
<stop stop-color="#FE8C00"/>
<stop offset="1" stop-color="#F83600"/>
</linearGradient>
<clipPath id="clip0_276_42206">
<rect width="24" height="24" fill="white"/>
</clipPath>
</defs>
</svg>
