<svg width="24" height="24" viewBox="0 0 24 24" fill="none" xmlns="http://www.w3.org/2000/svg">
<path d="M10.1252 2.625H13.8752C13.9747 2.625 14.0701 2.66451 14.1404 2.73484C14.2107 2.80516 14.2502 2.90054 14.2502 3C14.2502 3.09946 14.2107 3.19484 14.1404 3.26516C14.0701 3.33549 13.9747 3.375 13.8752 3.375H10.1252C10.0258 3.375 9.93039 3.33549 9.86006 3.26516C9.78973 3.19484 9.75022 3.09946 9.75022 3C9.75022 2.90054 9.78973 2.80516 9.86006 2.73484C9.93039 2.66451 10.0258 2.625 10.1252 2.625ZM12.0002 22.125C10.5002 22.1453 10.5002 19.8548 12.0002 19.8753C13.5002 19.8549 13.5002 22.1453 12.0002 22.125ZM12.0002 20.625C11.9008 20.625 11.8054 20.6645 11.7351 20.7348C11.6647 20.8052 11.6252 20.9005 11.6252 21C11.6252 21.0995 11.6647 21.1948 11.7351 21.2652C11.8054 21.3355 11.9008 21.375 12.0002 21.375C12.0997 21.375 12.1951 21.3355 12.2654 21.2652C12.3357 21.1948 12.3752 21.0995 12.3752 21C12.3752 20.9005 12.3357 20.8052 12.2654 20.7348C12.1951 20.6645 12.0997 20.625 12.0002 20.625ZM12.0002 16.1245C6.50025 16.1986 6.50021 7.80064 12.0006 7.87545C17.5002 7.80135 17.5002 16.1993 12.0002 16.1245V16.1245ZM12.0002 8.62537C7.50022 8.56477 7.50022 15.4357 12.0005 15.3745C16.5002 15.4352 16.5002 8.56425 12.0002 8.62537ZM12.0002 14.9996C8.00025 15.0535 8.00021 8.946 12.0005 9.00037C16.0002 8.94645 16.0002 15.054 12.0002 14.9996ZM12.0002 9.75026C9.00022 9.70973 9.00022 14.2906 12.0004 14.2497C15.0002 14.2902 15.0002 9.70939 12.0002 9.75026ZM11.8489 11.5159C11.8306 11.1402 12.5375 11.3811 12.7516 11.481L12.9487 10.7101C12.7687 10.6383 12.5782 10.5965 12.3847 10.5864L12.4678 10.276L11.8306 10.2994V10.6264C11.616 10.6538 11.4194 10.7607 11.2799 10.9261C11.1403 11.0915 11.068 11.3033 11.0772 11.5195C11.0865 11.7357 11.1766 11.9406 11.3297 12.0935C11.4828 12.2464 11.6878 12.3362 11.904 12.3451C12.5061 12.7066 11.4127 12.7127 11.1996 12.4855L10.9462 13.1964C11.1775 13.3106 11.4272 13.383 11.6838 13.4101L11.597 13.7238L12.2342 13.7003V13.3666C12.4633 13.3371 12.6735 13.224 12.8244 13.049C12.9753 12.8741 13.0564 12.6496 13.0519 12.4186C13.0367 11.7802 12.3443 11.6271 11.8489 11.5159ZM21.3077 7.8525L19.384 9.70875C19.3307 9.7587 19.2641 9.79207 19.1922 9.8048C19.1203 9.81753 19.0462 9.80907 18.979 9.78045C18.9119 9.75183 18.8545 9.70429 18.8138 9.64362C18.7732 9.58294 18.7511 9.51176 18.7502 9.43875V8.625H18.0002V22.125C17.9994 22.4231 17.8805 22.7087 17.6698 22.9195C17.459 23.1303 17.1733 23.2491 16.8752 23.25H7.12522C6.82712 23.2491 6.54148 23.1303 6.33069 22.9195C6.1199 22.7087 6.00109 22.4231 6.00022 22.125V18H5.25022V18.8137C5.24934 18.8868 5.22724 18.9579 5.18661 19.0186C5.14599 19.0793 5.08859 19.1268 5.02141 19.1554C4.95423 19.1841 4.88018 19.1925 4.80828 19.1798C4.73638 19.1671 4.66974 19.1337 4.61647 19.0837L2.69272 17.2275C2.62061 17.1573 2.56329 17.0733 2.52415 16.9806C2.48501 16.8878 2.46484 16.7882 2.46484 16.6875C2.46484 16.5868 2.48501 16.4872 2.52415 16.3944C2.56329 16.3017 2.62061 16.2177 2.69272 16.1475L4.61647 14.2913C4.66992 14.2418 4.73652 14.2089 4.80825 14.1964C4.87998 14.184 4.95379 14.1925 5.02077 14.2211C5.08775 14.2496 5.14504 14.2969 5.18576 14.3573C5.22647 14.4176 5.24886 14.4885 5.25022 14.5613V15.375H6.00022V1.875C6.00109 1.5769 6.1199 1.29126 6.33069 1.08047C6.54148 0.869677 6.82712 0.750871 7.12522 0.75H16.8752C17.1733 0.750871 17.459 0.869677 17.6698 1.08047C17.8805 1.29126 17.9994 1.5769 18.0002 1.875V6H18.7502V5.18625C18.7512 5.11328 18.7734 5.04217 18.814 4.98156C18.8547 4.92095 18.912 4.87346 18.9792 4.84486C19.0463 4.81625 19.1203 4.80777 19.1922 4.82045C19.264 4.83312 19.3307 4.86641 19.384 4.91625L21.3077 6.7725C21.3798 6.84273 21.4372 6.9267 21.4763 7.01944C21.5154 7.11219 21.5356 7.21183 21.5356 7.3125C21.5356 7.41317 21.5154 7.51281 21.4763 7.60556C21.4372 7.6983 21.3798 7.78227 21.3077 7.8525ZM6.75022 1.875V4.5H17.2502V1.875C17.2499 1.77563 17.2103 1.68042 17.1401 1.61015C17.0698 1.53989 16.9746 1.50029 16.8752 1.5H7.12522C7.02586 1.50029 6.93064 1.53989 6.86038 1.61015C6.79011 1.68042 6.75051 1.77563 6.75022 1.875ZM8.62522 17.25V16.125H4.87522C4.77586 16.1247 4.68064 16.0851 4.61038 16.0148C4.54011 15.9446 4.50051 15.8494 4.50022 15.75V15.4462L3.21397 16.6875L4.50022 17.9288V17.625C4.50051 17.5256 4.54011 17.4304 4.61038 17.3602C4.68064 17.2899 4.77586 17.2503 4.87522 17.25H8.62522ZM17.2502 22.125V19.5H6.75022V22.125C6.75051 22.2244 6.79011 22.3196 6.86038 22.3898C6.93064 22.4601 7.02586 22.4997 7.12522 22.5H16.8752C16.9746 22.4997 17.0698 22.4601 17.1401 22.3898C17.2103 22.3196 17.2499 22.2244 17.2502 22.125ZM17.2502 8.625H15.3752C15.1765 8.62442 14.9861 8.54521 14.8455 8.40469C14.705 8.26416 14.6258 8.07373 14.6252 7.875V6.75C14.6258 6.55127 14.705 6.36084 14.8455 6.22031C14.9861 6.07979 15.1765 6.00058 15.3752 6H17.2502V5.25H6.75022V15.375H8.62522C8.82396 15.3756 9.01438 15.4548 9.15491 15.5953C9.29544 15.7358 9.37464 15.9263 9.37522 16.125V17.25C9.37464 17.4487 9.29544 17.6392 9.15491 17.7797C9.01438 17.9202 8.82396 17.9994 8.62522 18H6.75022V18.75H17.2502V8.625ZM20.7865 7.3125L19.5002 6.07125V6.375C19.4999 6.47437 19.4603 6.56958 19.3901 6.63985C19.3198 6.71011 19.2246 6.74971 19.1252 6.75H15.3752V7.875H19.1252C19.2246 7.87529 19.3198 7.91489 19.3901 7.98515C19.4603 8.05542 19.4999 8.15063 19.5002 8.25V8.55375L20.7865 7.3125Z" fill="url(#paint0_linear_276_42195)"/>
<defs>
<linearGradient id="paint0_linear_276_42195" x1="2.46484" y1="12" x2="21.5356" y2="12" gradientUnits="userSpaceOnUse">
<stop stop-color="#FE8C00"/>
<stop offset="1" stop-color="#F83600"/>
</linearGradient>
</defs>
</svg>
