<svg width="24" height="24" viewBox="0 0 24 24" fill="none" xmlns="http://www.w3.org/2000/svg">
<path fill-rule="evenodd" clip-rule="evenodd" d="M18.9645 16.61L17.7915 15.437C17.2055 14.851 16.2555 14.851 15.6705 15.437L14.7485 16.359C14.5425 16.565 14.2305 16.634 13.9645 16.517C12.6285 15.932 11.3085 15.045 10.1315 13.868C8.95954 12.696 8.07554 11.382 7.48954 10.051C7.36754 9.77597 7.43854 9.45297 7.65154 9.23997L8.47754 8.41397C9.14854 7.74297 9.14854 6.79397 8.56254 6.20797L7.38954 5.03497C6.60854 4.25397 5.34254 4.25397 4.56154 5.03497L3.90954 5.68597C3.16854 6.42697 2.85954 7.49597 3.05954 8.55597C3.55354 11.169 5.07154 14.03 7.52054 16.479C9.96954 18.928 12.8305 20.446 15.4435 20.94C16.5035 21.14 17.5725 20.831 18.3135 20.09L18.9645 19.439C19.7455 18.658 19.7455 17.392 18.9645 16.61V16.61Z" stroke="url(#paint0_linear_460_26050)" stroke-width="1.5" stroke-linecap="round" stroke-linejoin="round"/>
<path d="M13 6.99097C14.031 6.97697 15.067 7.35897 15.854 8.14597" stroke="url(#paint1_linear_460_26050)" stroke-width="1.5" stroke-linecap="round" stroke-linejoin="round"/>
<path d="M18.682 5.31799C17.113 3.74899 15.056 2.96399 13 2.96399" stroke="url(#paint2_linear_460_26050)" stroke-width="1.5" stroke-linecap="round" stroke-linejoin="round"/>
<path d="M17.0105 11C17.0245 9.969 16.6425 8.933 15.8555 8.146" stroke="url(#paint3_linear_460_26050)" stroke-width="1.5" stroke-linecap="round" stroke-linejoin="round"/>
<path d="M18.6797 5.31799C20.2487 6.88699 21.0337 8.94399 21.0337 11" stroke="url(#paint4_linear_460_26050)" stroke-width="1.5" stroke-linecap="round" stroke-linejoin="round"/>
<defs>
<linearGradient id="paint0_linear_460_26050" x1="3" y1="4.44922" x2="20.0537" y2="4.98534" gradientUnits="userSpaceOnUse">
<stop stop-color="#F44336"/>
<stop offset="1" stop-color="#C62828"/>
</linearGradient>
<linearGradient id="paint1_linear_460_26050" x1="13" y1="6.9906" x2="15.9261" y2="7.21783" gradientUnits="userSpaceOnUse">
<stop stop-color="#F44336"/>
<stop offset="1" stop-color="#C62828"/>
</linearGradient>
<linearGradient id="paint2_linear_460_26050" x1="13" y1="2.96399" x2="18.8271" y2="3.40616" gradientUnits="userSpaceOnUse">
<stop stop-color="#F44336"/>
<stop offset="1" stop-color="#C62828"/>
</linearGradient>
<linearGradient id="paint3_linear_460_26050" x1="15.8555" y1="8.146" x2="17.047" y2="8.16116" gradientUnits="userSpaceOnUse">
<stop stop-color="#F44336"/>
<stop offset="1" stop-color="#C62828"/>
</linearGradient>
<linearGradient id="paint4_linear_460_26050" x1="18.6797" y1="5.31799" x2="21.1073" y2="5.34961" gradientUnits="userSpaceOnUse">
<stop stop-color="#F44336"/>
<stop offset="1" stop-color="#C62828"/>
</linearGradient>
</defs>
</svg>
