<svg width="24" height="24" viewBox="0 0 24 24" fill="none" xmlns="http://www.w3.org/2000/svg">
<path d="M20.7923 9.52355C21.5824 10.3136 21.5824 11.5945 20.7923 12.3845C20.0023 13.1745 18.7214 13.1745 17.9314 12.3845C17.1414 11.5945 17.1414 10.3136 17.9314 9.52355C18.7214 8.73352 20.0023 8.73352 20.7923 9.52355" stroke="white" stroke-linecap="round" stroke-linejoin="round"/>
<path d="M14.2024 5.91236C15.4189 7.12884 15.4189 9.10115 14.2024 10.3176C12.9859 11.5341 11.0136 11.5341 9.79713 10.3176C8.58065 9.10116 8.58065 7.12885 9.79713 5.91236C11.0136 4.69588 12.9859 4.69588 14.2024 5.91236" stroke="white" stroke-linecap="round" stroke-linejoin="round"/>
<path d="M6.06871 9.52355C6.85874 10.3136 6.85874 11.5945 6.06871 12.3845C5.27868 13.1745 3.99779 13.1745 3.20776 12.3845C2.41773 11.5945 2.41773 10.3136 3.20776 9.52355C3.99779 8.73352 5.27868 8.73352 6.06871 9.52355" stroke="white" stroke-linecap="round" stroke-linejoin="round"/>
<path d="M23.0002 19.0001V17.9041C23.0002 16.5231 21.8812 15.4041 20.5002 15.4041H19.6992" stroke="white" stroke-linecap="round" stroke-linejoin="round"/>
<path d="M1 19.0001V17.9041C1 16.5231 2.119 15.4041 3.5 15.4041H4.301" stroke="white" stroke-linecap="round" stroke-linejoin="round"/>
<path d="M17.3392 19V17.399C17.3392 15.466 15.7722 13.899 13.8392 13.899H10.1602C8.22716 13.899 6.66016 15.466 6.66016 17.399V19" stroke="white" stroke-linecap="round" stroke-linejoin="round"/>
</svg>
