<svg width="29" height="143" viewBox="0 0 29 143" fill="none" xmlns="http://www.w3.org/2000/svg">
<path d="M17.6315 136.777C17.6315 139.723 20.0193 142.11 22.9648 142.11C25.9104 142.11 28.2982 139.723 28.2982 136.777C28.2982 133.832 25.9104 131.444 22.9648 131.444C20.0193 131.444 17.6315 133.832 17.6315 136.777ZM22.9648 22.7633H23.9648C23.9648 22.4978 23.8593 22.2432 23.6714 22.0556L22.9648 22.7633ZM0.652018 5.80908C0.652018 8.7546 3.03983 11.1424 5.98535 11.1424C8.93087 11.1424 11.3187 8.7546 11.3187 5.80908C11.3187 2.86356 8.93087 0.475749 5.98535 0.475749C3.03983 0.475749 0.652018 2.86356 0.652018 5.80908ZM23.9648 136.777V22.7633H21.9648V136.777H23.9648ZM23.6714 22.0556L6.69193 5.10145L5.27877 6.51672L22.2583 23.4709L23.6714 22.0556Z" fill="url(#paint0_linear_258_52037)"/>
<defs>
<linearGradient id="paint0_linear_258_52037" x1="5.98535" y1="5.80908" x2="23.4983" y2="5.88046" gradientUnits="userSpaceOnUse">
<stop stop-color="#F44336"/>
<stop offset="1" stop-color="#C62828"/>
</linearGradient>
</defs>
</svg>
