<svg width="28" height="143" viewBox="0 0 28 143" fill="none" xmlns="http://www.w3.org/2000/svg">
<path d="M0.117838 136.777C0.117838 139.723 2.50565 142.11 5.45117 142.11C8.39669 142.11 10.7845 139.723 10.7845 136.777C10.7845 133.832 8.39669 131.444 5.45117 131.444C2.50565 131.444 0.117838 133.832 0.117838 136.777ZM5.45117 22.7633L4.74426 22.056C4.55661 22.2435 4.45117 22.498 4.45117 22.7633H5.45117ZM17.0815 5.80908C17.0815 8.7546 19.4693 11.1424 22.4148 11.1424C25.3603 11.1424 27.7482 8.7546 27.7482 5.80908C27.7482 2.86356 25.3603 0.475749 22.4148 0.475749C19.4693 0.475749 17.0815 2.86356 17.0815 5.80908ZM6.45117 136.777V22.7633H4.45117V136.777H6.45117ZM6.15808 23.4706L23.1217 6.51639L21.7079 5.10178L4.74426 22.056L6.15808 23.4706Z" fill="url(#paint0_linear_258_52036)"/>
<defs>
<linearGradient id="paint0_linear_258_52036" x1="5.45117" y1="5.80908" x2="22.9478" y2="5.88033" gradientUnits="userSpaceOnUse">
<stop stop-color="#F44336"/>
<stop offset="1" stop-color="#C62828"/>
</linearGradient>
</defs>
</svg>
