<svg width="12" height="102" viewBox="0 0 12 102" fill="none" xmlns="http://www.w3.org/2000/svg">
<path d="M0.666663 96C0.666662 98.9455 3.05448 101.333 6 101.333C8.94551 101.333 11.3333 98.9455 11.3333 96C11.3333 93.0545 8.94552 90.6667 6 90.6667C3.05448 90.6667 0.666663 93.0545 0.666663 96ZM0.666667 6C0.666666 8.94552 3.05448 11.3333 6 11.3333C8.94552 11.3333 11.3333 8.94552 11.3333 6C11.3333 3.05448 8.94552 0.666667 6 0.666667C3.05448 0.666666 0.666667 3.05448 0.666667 6ZM7 96L7 6L5 6L5 96L7 96Z" fill="url(#paint0_linear_258_52041)"/>
<defs>
<linearGradient id="paint0_linear_258_52041" x1="6" y1="6" x2="7.03144" y2="6.00036" gradientUnits="userSpaceOnUse">
<stop stop-color="#F44336"/>
<stop offset="1" stop-color="#C62828"/>
</linearGradient>
</defs>
</svg>
