<svg width="32" height="126" viewBox="0 0 32 126" fill="none" xmlns="http://www.w3.org/2000/svg">
<path d="M0.666667 119.835C0.666667 122.78 3.05448 125.168 6 125.168C8.94552 125.168 11.3333 122.78 11.3333 119.835C11.3333 116.889 8.94552 114.501 6 114.501C3.05448 114.501 0.666667 116.889 0.666667 119.835ZM6 5.8208V4.8208C5.44772 4.8208 5 5.26852 5 5.8208H6ZM21.0167 5.8208C21.0167 8.76632 23.4045 11.1541 26.35 11.1541C29.2956 11.1541 31.6834 8.76632 31.6834 5.8208C31.6834 2.87528 29.2956 0.487467 26.35 0.487467C23.4045 0.487467 21.0167 2.87528 21.0167 5.8208ZM7 119.835V5.8208H5V119.835H7ZM6 6.8208H26.35V4.8208H6V6.8208Z" fill="url(#paint0_linear_258_52039)"/>
<defs>
<linearGradient id="paint0_linear_258_52039" x1="6" y1="5.8208" x2="26.9891" y2="5.93857" gradientUnits="userSpaceOnUse">
<stop stop-color="#F44336"/>
<stop offset="1" stop-color="#C62828"/>
</linearGradient>
</defs>
</svg>
