<svg width="32" height="126" viewBox="0 0 32 126" fill="none" xmlns="http://www.w3.org/2000/svg">
<path d="M21.0841 119.835C21.0841 122.78 23.4719 125.168 26.4174 125.168C29.3629 125.168 31.7507 122.78 31.7507 119.835C31.7507 116.889 29.3629 114.501 26.4174 114.501C23.4719 114.501 21.0841 116.889 21.0841 119.835ZM26.4174 5.8208H27.4174C27.4174 5.26852 26.9697 4.8208 26.4174 4.8208V5.8208ZM0.734049 5.8208C0.734049 8.76632 3.12186 11.1541 6.06738 11.1541C9.0129 11.1541 11.4007 8.76632 11.4007 5.8208C11.4007 2.87528 9.0129 0.487467 6.06738 0.487467C3.12186 0.487467 0.734049 2.87528 0.734049 5.8208ZM27.4174 119.835V5.8208H25.4174V119.835H27.4174ZM26.4174 4.8208H6.06738V6.8208H26.4174V4.8208Z" fill="url(#paint0_linear_258_52040)"/>
<defs>
<linearGradient id="paint0_linear_258_52040" x1="6.06738" y1="5.8208" x2="27.0565" y2="5.93857" gradientUnits="userSpaceOnUse">
<stop stop-color="#F44336"/>
<stop offset="1" stop-color="#C62828"/>
</linearGradient>
</defs>
</svg>
