<svg width="32" height="32" viewBox="0 0 32 32" fill="none" xmlns="http://www.w3.org/2000/svg">
<g clip-path="url(#clip0_330_21286)">
<path d="M16 32C24.8366 32 32 24.8366 32 16C32 7.16344 24.8366 0 16 0C7.16344 0 0 7.16344 0 16C0 24.8366 7.16344 32 16 32Z" fill="#CD272F"/>
<path d="M31.9991 16.0001C31.9991 15.4562 31.9717 14.9187 31.9187 14.3887L22.5864 5.05649L20.565 7.29543L15.9991 2.72949L5.03906 24.5786L11.9134 31.4728C13.2178 31.8164 14.5869 32.0001 15.9991 32.0001C24.8357 32.0001 31.9991 24.8367 31.9991 16.0001Z" fill="#AF1F26"/>
<path d="M11.1338 10.0145L9.41211 5.05649L13.0052 6.57943L15.9994 2.72949L18.8779 8.10005L15.9994 10.0145H11.1338Z" fill="#FFC217"/>
<path d="M20.8656 10.0145L22.5873 5.05649L18.9942 6.57943L16 2.72949V10.0145H20.8656Z" fill="#F29C11"/>
<path d="M7.28305 10.3799C6.23248 10.3799 5.38086 11.2315 5.38086 12.2821V22.3397C5.38086 23.3903 6.23248 24.2419 7.28305 24.2419H16.0005L23.2602 16.9465L16.0005 10.3799H7.28305Z" fill="url(#paint0_linear_330_21286)"/>
<path d="M24.7175 10.3799H16V13.5396L16.7794 17.1943L16 21.0821V24.2419H24.7175C25.7681 24.2419 26.6197 23.3903 26.6197 22.3397V12.2821C26.6197 11.2315 25.7681 10.3799 24.7175 10.3799Z" fill="url(#paint1_linear_330_21286)"/>
<path d="M6.99789 23.49C6.46595 23.49 6.0332 23.0572 6.0332 22.5253V12.0965C6.0332 11.5646 6.46595 11.1318 6.99789 11.1318H15.9997L18.3331 10.3799L15.9997 9.25684H6.99789C5.43208 9.25684 4.1582 10.5307 4.1582 12.0965V22.5253C4.1582 24.0911 5.43208 25.365 6.99789 25.365H15.9997L18.7763 24.5002L15.9997 23.49H6.99789Z" fill="white"/>
<path d="M25.0018 9.25684H16V11.1318H25.0018C25.5337 11.1318 25.9665 11.5646 25.9665 12.0965V22.5253C25.9665 23.0572 25.5337 23.49 25.0018 23.49H16V25.365H25.0018C26.5676 25.365 27.8415 24.0911 27.8415 22.5253V12.0965C27.8415 10.5307 26.5676 9.25684 25.0018 9.25684Z" fill="#EAEAEA"/>
<path d="M20.7691 13.5391H18.334V21.0816H19.846V18.4581C20.184 18.4564 20.5559 18.4548 20.7692 18.4548C22.1429 18.4548 23.2604 17.3521 23.2604 15.9969C23.2603 14.6416 22.1428 13.5391 20.7691 13.5391ZM20.7691 16.9428C20.5567 16.9428 20.1897 16.9443 19.8535 16.946C19.8518 16.5979 19.8502 16.2146 19.8502 15.9969C19.8502 15.8111 19.8492 15.4148 19.8482 15.0511H20.7691C21.2999 15.0511 21.7483 15.4843 21.7483 15.9969C21.7483 16.5096 21.2999 16.9428 20.7691 16.9428Z" fill="white"/>
<path d="M16.0117 13.5391H17.5462V21.0816H16.0117V13.5391Z" fill="white"/>
<path d="M12.0657 18.1058L10.523 13.5391H8.80273L11.3582 21.0816H12.7691L15.3245 13.5391H13.6632L12.0657 18.1058Z" fill="white"/>
</g>
<defs>
<linearGradient id="paint0_linear_330_21286" x1="5.38086" y1="17.3109" x2="16.0005" y2="17.3109" gradientUnits="userSpaceOnUse">
<stop stop-color="#FE8C00"/>
<stop offset="1" stop-color="#F83600"/>
</linearGradient>
<linearGradient id="paint1_linear_330_21286" x1="16" y1="17.3109" x2="26.6197" y2="17.3109" gradientUnits="userSpaceOnUse">
<stop stop-color="#F83600"/>
<stop offset="1" stop-color="#FE8C00"/>
</linearGradient>
<clipPath id="clip0_330_21286">
<rect width="32" height="32" fill="white"/>
</clipPath>
</defs>
</svg>
