<svg width="38" height="26" viewBox="0 0 38 26" fill="none" xmlns="http://www.w3.org/2000/svg">
<g clip-path="url(#clip0_258_88263)">
<path d="M37.1608 4.05528C36.9428 3.27146 36.5176 2.55687 35.9276 1.98269C35.3376 1.4085 34.6032 0.994733 33.7978 0.7826C30.8489 0 18.9807 0 18.9807 0C18.9807 0 7.11197 0.0236888 4.16311 0.806289C3.35761 1.01843 2.62328 1.43222 2.03324 2.00644C1.4432 2.58065 1.01805 3.29526 0.800107 4.07911C-0.0918543 9.17771 -0.437862 16.9468 0.824599 21.8414C1.04256 22.6253 1.46773 23.3398 2.05777 23.914C2.6478 24.4882 3.38212 24.902 4.1876 25.1141C7.13646 25.8967 19.0049 25.8967 19.0049 25.8967C19.0049 25.8967 30.8732 25.8967 33.822 25.1141C34.6275 24.902 35.3618 24.4883 35.9519 23.9141C36.5419 23.3399 36.9671 22.6253 37.1851 21.8414C38.1259 16.7356 38.4158 8.97145 37.1608 4.05542V4.05528Z" fill="#FF0000"/>
<path d="M15.2031 18.4976L25.0487 12.9483L15.2031 7.39905V18.4976Z" fill="white"/>
</g>
<defs>
<clipPath id="clip0_258_88263">
<rect width="38" height="26" fill="white"/>
</clipPath>
</defs>
</svg>
